<svg xmlns="http://www.w3.org/2000/svg" width="800" height="400" viewBox="0 0 800 400">
  <g fill="none" fill-rule="evenodd">
    <rect width="800" height="400" fill="#FFF"/>
    <g fill-rule="nonzero" transform="translate(-10 -65)">
      <path fill="#329374" d="M3.5 13.7727273C4.20290786 13.7727273 4.77272727 13.2029079 4.77272727 12.5 4.77272727 11.7970921 4.20290786 11.2272727 3.5 11.2272727 2.79709214 11.2272727 2.22727273 11.7970921 2.22727273 12.5 2.22727273 13.2029079 2.79709214 13.7727273 3.5 13.7727273zM3.5 16C1.56700338 16 0 14.4329966 0 12.5 0 10.5670034 1.56700338 9 3.5 9 5.43299662 9 7 10.5670034 7 12.5 7 14.4329966 5.43299662 16 3.5 16zM3.5 4.77272727C4.20290786 4.77272727 4.77272727 4.20290786 4.77272727 3.5 4.77272727 2.79709214 4.20290786 2.22727273 3.5 2.22727273 2.79709214 2.22727273 2.22727273 2.79709214 2.22727273 3.5 2.22727273 4.20290786 2.79709214 4.77272727 3.5 4.77272727zM3.5 7C1.56700338 7 0 5.43299662 0 3.5 0 1.56700338 1.56700338 0 3.5 0 5.43299662 0 7 1.56700338 7 3.5 7 5.43299662 5.43299662 7 3.5 7z" transform="translate(461 89)"/>
      <path fill="#E4E7ED" d="M11,19.6819512 C15.7949093,19.6819512 19.6819512,15.7949093 19.6819512,11 C19.6819512,6.20509074 15.7949093,2.31804878 11,2.31804878 C6.20509074,2.31804878 2.31804878,6.20509074 2.31804878,11 C2.31804878,15.7949093 6.20509074,19.6819512 11,19.6819512 Z M11,22 C4.92486775,22 0,17.0751322 0,11 C0,4.92486775 4.92486775,0 11,0 C17.0751322,0 22,4.92486775 22,11 C22,17.0751322 17.0751322,22 11,22 Z" transform="rotate(180 255.5 61.5)"/>
      <g transform="matrix(-1 0 0 1 93 100)">
        <path stroke="#FFE0A6" stroke-width="2.425" d="M18.7487362,26.78725 C18.1492265,17.377477 10.622523,9.85077345 1.21275,9.2512638 C1.21275,14.8878637 1.21275,15.7951449 1.21275,26.78725 C9.61743115,26.78725 10.3674365,26.78725 18.7487362,26.78725 Z"/>
        <path fill="#FFE0A6" d="M16.1538462,2.15384615 L16.1538462,11.8461538 L25.8461538,11.8461538 L25.8461538,2.15384615 L16.1538462,2.15384615 Z M14,0 L28,0 L28,14 L14,14 L14,0 Z" transform="matrix(1 0 0 -1 0 14)"/>
      </g>
      <path fill="#FCC6C2" d="M4 5.45454545C4.80332327 5.45454545 5.45454545 4.80332327 5.45454545 4 5.45454545 3.19667673 4.80332327 2.54545455 4 2.54545455 3.19667673 2.54545455 2.54545455 3.19667673 2.54545455 4 2.54545455 4.80332327 3.19667673 5.45454545 4 5.45454545zM4 8C1.790861 8 0 6.209139 0 4 0 1.790861 1.790861 0 4 0 6.209139 0 8 1.790861 8 4 8 6.209139 6.209139 8 4 8zM4 16.4545455C4.80332327 16.4545455 5.45454545 15.8033233 5.45454545 15 5.45454545 14.1966767 4.80332327 13.5454545 4 13.5454545 3.19667673 13.5454545 2.54545455 14.1966767 2.54545455 15 2.54545455 15.8033233 3.19667673 16.4545455 4 16.4545455zM4 19C1.790861 19 0 17.209139 0 15 0 12.790861 1.790861 11 4 11 6.209139 11 8 12.790861 8 15 8 17.209139 6.209139 19 4 19zM15 16.4545455C15.8033233 16.4545455 16.4545455 15.8033233 16.4545455 15 16.4545455 14.1966767 15.8033233 13.5454545 15 13.5454545 14.1966767 13.5454545 13.5454545 14.1966767 13.5454545 15 13.5454545 15.8033233 14.1966767 16.4545455 15 16.4545455zM15 19C12.790861 19 11 17.209139 11 15 11 12.790861 12.790861 11 15 11 17.209139 11 19 12.790861 19 15 19 17.209139 17.209139 19 15 19z" transform="matrix(1 0 0 -1 758 436)"/>
    </g>
    <path fill="#000" fill-rule="nonzero" d="M12.716 6.708L12.716 33.168C12.716 36.084 14.066 36.84 17.414 36.84L19.736 36.84C23.84 36.84 25.676 34.248 29.564 27.282L31.454 27.282 29.564 39 .458 39 .458 37.11C4.238 36.678 4.778 36.354 4.778 33.384L4.778 6.708C4.778 3.738 4.238 3.414.458 2.982L.458 1.092 17.036 1.092 17.036 2.982C13.256 3.414 12.716 3.738 12.716 6.708zM48.032 37.596C52.028 37.596 53.81 33.006 53.81 25.932 53.81 17.94 51.974 11.838 47.654 11.838 43.658 11.838 41.822 16.374 41.822 23.448 41.822 31.44 43.712 37.596 48.032 37.596zM47.762 39.54C39.5 39.54 33.884 33.924 33.884 25.338 33.884 16.158 39.878 9.84 47.924 9.84 56.186 9.84 61.802 15.564 61.802 24.096 61.802 33.276 55.808 39.54 47.762 39.54zM76.436 28.794C74.546 28.794 72.656 28.524 70.982 27.93 69.956 28.902 69.146 30.036 69.146 31.17 69.146 32.304 69.848 33.006 71.036 33.006L82.16 33.006C88.424 33.006 91.664 35.652 91.664 40.404 91.664 47.208 84.86 50.988 75.896 50.988 68.012 50.988 63.098 48.612 63.098 44.238 63.098 41.484 65.582 39.972 68.174 39.162 66.068 38.352 64.826 36.462 64.826 34.248 64.826 31.062 67.364 29.01 69.848 27.444 66.986 26.04 64.88 23.556 64.88 19.722 64.88 13.512 69.902 9.84 76.652 9.84 78.65 9.84 80.108 10.218 81.458 10.596L90.584 10.38 90.584 13.512 88.37 13.512 84.59 13.35C86.48 14.592 87.992 16.86 87.992 19.56 87.992 25.284 83.186 28.794 76.436 28.794zM82.052 39.864L69.038 39.864C68.336 40.674 68.012 41.754 68.012 43.05 68.012 46.668 71.198 48.936 76.274 48.936 81.566 48.936 86.318 47.154 86.318 43.104 86.318 40.728 84.698 39.864 82.052 39.864zM76.76 27.012C79.73 27.012 80.918 24.042 80.918 19.722 80.918 15.402 79.46 11.676 76.328 11.676 73.304 11.676 72.062 14.646 72.062 18.858 72.062 23.286 73.574 27.012 76.76 27.012zM106.406 37.596C110.402 37.596 112.184 33.006 112.184 25.932 112.184 17.94 110.348 11.838 106.028 11.838 102.032 11.838 100.196 16.374 100.196 23.448 100.196 31.44 102.086 37.596 106.406 37.596zM106.136 39.54C97.874 39.54 92.258 33.924 92.258 25.338 92.258 16.158 98.252 9.84 106.298 9.84 114.56 9.84 120.176 15.564 120.176 24.096 120.176 33.276 114.182 39.54 106.136 39.54zM158.246 32.628L155.762 26.526 141.236 26.526 138.914 32.574C138.59 33.384 138.428 34.086 138.428 34.68 138.428 36.408 139.778 37.002 143.072 37.11L143.072 39 131.948 39 131.948 37.11C133.46 36.894 134.54 36.57 135.134 35.112L146.906 4.872 145.232.822 153.656.822 167.534 35.112C168.128 36.57 169.262 36.894 170.72 37.11L170.72 39 154.196 39 154.196 37.11C157.382 37.002 158.732 36.462 158.732 34.734 158.732 34.14 158.57 33.438 158.246 32.628zM148.364 7.95L142.1 24.204 154.844 24.204 148.364 7.95zM182.708 39.54C178.604 39.54 175.202 38.46 172.988 36.84L172.664 29.442 174.662 29.442C175.85 34.14 178.604 37.65 182.762 37.65 185.678 37.65 187.892 36.246 187.892 33.276 187.892 30.36 185.894 29.226 181.628 27.714 175.85 25.716 172.88 23.448 172.88 18.426 172.88 13.026 176.984 9.84 182.924 9.84 186.434 9.84 189.458 10.758 191.726 12.216L191.726 18.75 189.89 18.75C189.026 14.862 186.758 11.73 182.924 11.73 180.17 11.73 178.55 13.35 178.55 15.672 178.55 18.156 180.224 19.344 184.382 20.856 190.268 22.908 193.67 25.122 193.67 30.414 193.67 36.192 189.35 39.54 182.708 39.54zM207.278 39.54C203.174 39.54 199.772 38.46 197.558 36.84L197.234 29.442 199.232 29.442C200.42 34.14 203.174 37.65 207.332 37.65 210.248 37.65 212.462 36.246 212.462 33.276 212.462 30.36 210.464 29.226 206.198 27.714 200.42 25.716 197.45 23.448 197.45 18.426 197.45 13.026 201.554 9.84 207.494 9.84 211.004 9.84 214.028 10.758 216.296 12.216L216.296 18.75 214.46 18.75C213.596 14.862 211.328 11.73 207.494 11.73 204.74 11.73 203.12 13.35 203.12 15.672 203.12 18.156 204.794 19.344 208.952 20.856 214.838 22.908 218.24 25.122 218.24 30.414 218.24 36.192 213.92 39.54 207.278 39.54zM234.656 9.84C241.892 9.84 245.672 14.646 245.672 21.126L245.672 22.368 228.068 22.368C227.852 29.928 231.74 34.41 237.032 34.41 240.704 34.41 243.134 32.844 245.078 30.036L245.942 30.522C244.538 35.868 240.596 39.54 234.386 39.54 226.556 39.54 221.318 33.762 221.318 25.446 221.318 16.212 227.258 9.84 234.656 9.84zM234.116 11.838C230.552 11.838 228.608 15.402 228.176 20.37L238.976 20.37C238.976 15.294 237.626 11.838 234.116 11.838zM258.038 3.36L258.038 10.38 265.058 10.38 265.058 12.864 258.038 12.864 258.038 30.738C258.038 34.032 259.28 35.436 261.818 35.436 263.33 35.436 264.518 34.95 265.868 33.924L266.516 34.896C264.788 37.596 262.088 39.54 258.2 39.54 253.772 39.54 250.532 37.218 250.532 31.17L250.532 12.864 247.184 12.864 247.184 11.622C250.91 9.948 254.096 6.924 256.418 3.36L258.038 3.36zM278.396 39.54C274.292 39.54 270.89 38.46 268.676 36.84L268.352 29.442 270.35 29.442C271.538 34.14 274.292 37.65 278.45 37.65 281.366 37.65 283.58 36.246 283.58 33.276 283.58 30.36 281.582 29.226 277.316 27.714 271.538 25.716 268.568 23.448 268.568 18.426 268.568 13.026 272.672 9.84 278.612 9.84 282.122 9.84 285.146 10.758 287.414 12.216L287.414 18.75 285.578 18.75C284.714 14.862 282.446 11.73 278.612 11.73 275.858 11.73 274.238 13.35 274.238 15.672 274.238 18.156 275.912 19.344 280.07 20.856 285.956 22.908 289.358 25.122 289.358 30.414 289.358 36.192 285.038 39.54 278.396 39.54zM8.27 114L1.7 114 1.7 93 8.27 93C13.22 93 18.05 96.18 18.05 103.5 18.05 110.82 13.22 114 8.27 114zM5.6 96.6L5.6 110.4 7.04 110.4C8.87 110.4 10.37 110.01 11.78 109.05 13.22 108.09 14.09 106.17 14.09 103.5 14.09 100.83 13.22 98.91 11.78 97.95 10.37 96.99 8.87 96.6 7.04 96.6L5.6 96.6zM23.03 112.05C21.65 110.58 20.96 108.69 20.96 106.44 20.96 104.19 21.65 102.33 23.03 100.86 24.41 99.39 26.27 98.64 28.64 98.64 31.01 98.64 32.87 99.39 34.25 100.86 35.63 102.33 36.32 104.19 36.32 106.44 36.32 108.69 35.63 110.58 34.25 112.05 32.87 113.52 31.01 114.24 28.64 114.24 26.27 114.24 24.41 113.52 23.03 112.05zM25.88 103.17C25.19 104.04 24.86 105.15 24.86 106.44 24.86 107.73 25.19 108.84 25.88 109.74 26.57 110.61 27.47 111.06 28.64 111.06 29.81 111.06 30.71 110.61 31.4 109.74 32.09 108.84 32.42 107.73 32.42 106.44 32.42 105.15 32.09 104.04 31.4 103.17 30.71 102.27 29.81 101.82 28.64 101.82 27.47 101.82 26.57 102.27 25.88 103.17zM53.21 109.26L55.91 98.88 59.66 98.88 54.83 114 51.53 114 48.92 104.22 46.31 114 43.01 114 38.18 98.88 41.93 98.88 44.63 109.26 47.18 98.88 50.66 98.88 53.21 109.26zM62.39 114L62.39 98.88 66.11 98.88 66.11 101.31C67.34 99.54 68.9 98.64 70.79 98.64 73.58 98.64 75.44 100.23 75.44 103.2L75.44 114 71.72 114 71.72 104.31C71.72 102.66 71 101.82 69.56 101.82 67.64 101.82 66.11 104.16 66.11 107.97L66.11 114 62.39 114zM79.94 114L79.94 92.76 83.66 92.76 83.66 114 79.94 114zM89.18 112.05C87.8 110.58 87.11 108.69 87.11 106.44 87.11 104.19 87.8 102.33 89.18 100.86 90.56 99.39 92.42 98.64 94.79 98.64 97.16 98.64 99.02 99.39 100.4 100.86 101.78 102.33 102.47 104.19 102.47 106.44 102.47 108.69 101.78 110.58 100.4 112.05 99.02 113.52 97.16 114.24 94.79 114.24 92.42 114.24 90.56 113.52 89.18 112.05zM92.03 103.17C91.34 104.04 91.01 105.15 91.01 106.44 91.01 107.73 91.34 108.84 92.03 109.74 92.72 110.61 93.62 111.06 94.79 111.06 95.96 111.06 96.86 110.61 97.55 109.74 98.24 108.84 98.57 107.73 98.57 106.44 98.57 105.15 98.24 104.04 97.55 103.17 96.86 102.27 95.96 101.82 94.79 101.82 93.62 101.82 92.72 102.27 92.03 103.17zM108.68 103.56L105.53 102.84C106.01 100.32 108.26 98.64 111.29 98.64 115.52 98.64 117.65 100.74 117.65 104.97L117.65 114 114.59 114 114.2 112.08C113.03 113.52 111.47 114.24 109.55 114.24 106.88 114.24 104.96 112.56 104.96 109.65 104.96 106.65 107.57 104.7 111.41 104.7L113.93 104.7 113.93 104.04C113.93 102.57 113.06 101.82 111.29 101.82 109.94 101.82 109.07 102.39 108.68 103.56zM108.86 109.59C108.86 110.4 109.43 111.06 110.42 111.06 111.35 111.06 112.16 110.76 112.85 110.19 113.57 109.62 113.93 108.87 113.93 107.94L113.93 107.64 111.44 107.64C109.73 107.64 108.86 108.3 108.86 109.59zM127.79 98.64C129.26 98.64 130.76 99.39 131.45 100.26L131.45 92.76 135.17 92.76 135.17 114 131.45 114 131.45 112.44C130.97 113.31 129.5 114.24 127.79 114.24 123.35 114.24 120.89 111.21 120.89 106.44 120.89 101.67 123.35 98.64 127.79 98.64zM125.78 103.05C125.12 103.86 124.79 105 124.79 106.44 124.79 107.88 125.12 109.02 125.78 109.83 126.44 110.64 127.28 111.06 128.3 111.06 129.32 111.06 130.16 110.67 130.79 109.86 131.45 109.05 131.78 107.91 131.78 106.44 131.78 104.97 131.45 103.86 130.79 103.05 130.16 102.24 129.32 101.82 128.3 101.82 127.28 101.82 126.44 102.24 125.78 103.05zM159.53 106.86L159.53 93 163.43 93 163.43 114 159.32 114 151.61 100.14 151.61 114 147.71 114 147.71 93 151.82 93 159.53 106.86zM169.49 112.05C168.11 110.58 167.42 108.69 167.42 106.44 167.42 104.19 168.11 102.33 169.49 100.86 170.87 99.39 172.73 98.64 175.1 98.64 177.47 98.64 179.33 99.39 180.71 100.86 182.09 102.33 182.78 104.19 182.78 106.44 182.78 108.69 182.09 110.58 180.71 112.05 179.33 113.52 177.47 114.24 175.1 114.24 172.73 114.24 170.87 113.52 169.49 112.05zM172.34 103.17C171.65 104.04 171.32 105.15 171.32 106.44 171.32 107.73 171.65 108.84 172.34 109.74 173.03 110.61 173.93 111.06 175.1 111.06 176.27 111.06 177.17 110.61 177.86 109.74 178.55 108.84 178.88 107.73 178.88 106.44 178.88 105.15 178.55 104.04 177.86 103.17 177.17 102.27 176.27 101.82 175.1 101.82 173.93 101.82 173.03 102.27 172.34 103.17zM199.67 109.26L202.37 98.88 206.12 98.88 201.29 114 197.99 114 195.38 104.22 192.77 114 189.47 114 184.64 98.88 188.39 98.88 191.09 109.26 193.64 98.88 197.12 98.88 199.67 109.26z" transform="translate(51 176)"/>
    <path fill="#000" fill-rule="nonzero" d="M106.5625,106.5625 L106.5625,155 L48.4375,155 L48.4375,106.5625 L0,106.5625 L0,48.4375 L48.4375,48.4375 L48.4375,1.35713663e-12 L106.5625,1.35713663e-12 L106.5625,48.4375 L155,48.4375 L155,106.5625 L106.5625,106.5625 Z M58.4375,106.875 L58.4375,145 L96.5625,145 L96.5625,106.875 L58.4375,106.875 Z M10,58.4375 L10,96.5625 L48.125,96.5625 L48.125,58.4375 L10,58.4375 Z M58.4375,10 L58.4375,96.5625 L145,96.5625 L145,58.4375 L96.5625,58.4375 L96.5625,10 L58.4375,10 Z" transform="translate(595 123)"/>
  </g>
</svg>
