<svg xmlns="http://www.w3.org/2000/svg" width="800" height="400" viewBox="0 0 800 400">
  <g fill="none" fill-rule="evenodd">
    <rect width="800" height="400" fill="#FFF"/>
    <g fill-rule="nonzero" transform="translate(-10 -65)">
      <path fill="#329374" d="M3.5 13.7727273C4.20290786 13.7727273 4.77272727 13.2029079 4.77272727 12.5 4.77272727 11.7970921 4.20290786 11.2272727 3.5 11.2272727 2.79709214 11.2272727 2.22727273 11.7970921 2.22727273 12.5 2.22727273 13.2029079 2.79709214 13.7727273 3.5 13.7727273zM3.5 16C1.56700338 16 0 14.4329966 0 12.5 0 10.5670034 1.56700338 9 3.5 9 5.43299662 9 7 10.5670034 7 12.5 7 14.4329966 5.43299662 16 3.5 16zM3.5 4.77272727C4.20290786 4.77272727 4.77272727 4.20290786 4.77272727 3.5 4.77272727 2.79709214 4.20290786 2.22727273 3.5 2.22727273 2.79709214 2.22727273 2.22727273 2.79709214 2.22727273 3.5 2.22727273 4.20290786 2.79709214 4.77272727 3.5 4.77272727zM3.5 7C1.56700338 7 0 5.43299662 0 3.5 0 1.56700338 1.56700338 0 3.5 0 5.43299662 0 7 1.56700338 7 3.5 7 5.43299662 5.43299662 7 3.5 7z" transform="translate(461 89)"/>
      <path fill="#E4E7ED" d="M11,19.6819512 C15.7949093,19.6819512 19.6819512,15.7949093 19.6819512,11 C19.6819512,6.20509074 15.7949093,2.31804878 11,2.31804878 C6.20509074,2.31804878 2.31804878,6.20509074 2.31804878,11 C2.31804878,15.7949093 6.20509074,19.6819512 11,19.6819512 Z M11,22 C4.92486775,22 0,17.0751322 0,11 C0,4.92486775 4.92486775,0 11,0 C17.0751322,0 22,4.92486775 22,11 C22,17.0751322 17.0751322,22 11,22 Z" transform="rotate(180 255.5 61.5)"/>
      <g transform="matrix(-1 0 0 1 93 100)">
        <path stroke="#FFE0A6" stroke-width="2.425" d="M18.7487362,26.78725 C18.1492265,17.377477 10.622523,9.85077345 1.21275,9.2512638 C1.21275,14.8878637 1.21275,15.7951449 1.21275,26.78725 C9.61743115,26.78725 10.3674365,26.78725 18.7487362,26.78725 Z"/>
        <path fill="#FFE0A6" d="M16.1538462,2.15384615 L16.1538462,11.8461538 L25.8461538,11.8461538 L25.8461538,2.15384615 L16.1538462,2.15384615 Z M14,0 L28,0 L28,14 L14,14 L14,0 Z" transform="matrix(1 0 0 -1 0 14)"/>
      </g>
      <path fill="#FCC6C2" d="M4 5.45454545C4.80332327 5.45454545 5.45454545 4.80332327 5.45454545 4 5.45454545 3.19667673 4.80332327 2.54545455 4 2.54545455 3.19667673 2.54545455 2.54545455 3.19667673 2.54545455 4 2.54545455 4.80332327 3.19667673 5.45454545 4 5.45454545zM4 8C1.790861 8 0 6.209139 0 4 0 1.790861 1.790861 0 4 0 6.209139 0 8 1.790861 8 4 8 6.209139 6.209139 8 4 8zM4 16.4545455C4.80332327 16.4545455 5.45454545 15.8033233 5.45454545 15 5.45454545 14.1966767 4.80332327 13.5454545 4 13.5454545 3.19667673 13.5454545 2.54545455 14.1966767 2.54545455 15 2.54545455 15.8033233 3.19667673 16.4545455 4 16.4545455zM4 19C1.790861 19 0 17.209139 0 15 0 12.790861 1.790861 11 4 11 6.209139 11 8 12.790861 8 15 8 17.209139 6.209139 19 4 19zM15 16.4545455C15.8033233 16.4545455 16.4545455 15.8033233 16.4545455 15 16.4545455 14.1966767 15.8033233 13.5454545 15 13.5454545 14.1966767 13.5454545 13.5454545 14.1966767 13.5454545 15 13.5454545 15.8033233 14.1966767 16.4545455 15 16.4545455zM15 19C12.790861 19 11 17.209139 11 15 11 12.790861 12.790861 11 15 11 17.209139 11 19 12.790861 19 15 19 17.209139 17.209139 19 15 19z" transform="matrix(1 0 0 -1 758 436)"/>
    </g>
    <path fill="#000" fill-rule="nonzero" d="M19.682.552C24.488.552 28.538 1.74 31.616 3.738L31.67 12.432 29.618 12.432C28.322 6.168 25.136 2.82 19.898 2.82 12.446 2.82 8.99 10.272 8.99 19.452 8.99 29.496 12.986 37.218 20.384 37.218 25.46 37.218 28.916 34.032 30.806 26.148L32.966 26.148 32.156 36.3C28.97 38.352 24.758 39.54 19.682 39.54 7.91 39.54.62 32.142.62 20.964.62 8.436 8.99.552 19.682.552zM55.538.552C60.344.552 64.394 1.74 67.472 3.738L67.526 12.432 65.474 12.432C64.178 6.168 60.992 2.82 55.754 2.82 48.302 2.82 44.846 10.272 44.846 19.452 44.846 29.496 48.842 37.218 56.24 37.218 61.316 37.218 64.772 34.032 66.662 26.148L68.822 26.148 68.012 36.3C64.826 38.352 60.614 39.54 55.538 39.54 43.766 39.54 36.476 32.142 36.476 20.964 36.476 8.436 44.846.552 55.538.552zM83.996 23.934L83.996 33.006C83.996 36.03 85.454 36.732 90.476 37.056L90.476 39 71.738 39 71.738 37.11C75.518 36.678 76.058 36.354 76.058 33.384L76.058 6.708C76.058 3.738 75.518 3.414 71.738 2.982L71.738 1.092 88.262 1.092C98.414 1.092 103.166 6.168 103.166 12.324 103.166 19.398 98.252 23.934 88.154 23.934L83.996 23.934zM83.996 3.252L83.996 21.612 86.318 21.612C92.312 21.612 95.066 18.21 95.066 12.486 95.066 7.086 92.15 3.252 86.318 3.252L83.996 3.252zM124.442 37.326C130.814 37.326 133.622 29.118 133.622 20.37 133.622 11.352 130.76 2.766 123.956 2.766 117.638 2.766 114.776 10.974 114.776 19.722 114.776 28.74 117.692 37.326 124.442 37.326zM123.902 39.54C112.454 39.54 106.352 30.738 106.352 20.802 106.352 8.436 114.182.552 124.55.552 135.944.552 142.1 9.354 142.1 19.29 142.1 31.656 134.27 39.54 123.902 39.54zM167.75 6.708L167.75 33.168C167.75 36.084 169.1 36.84 172.448 36.84L174.77 36.84C178.874 36.84 180.71 34.248 184.598 27.282L186.488 27.282 184.598 39 155.492 39 155.492 37.11C159.272 36.678 159.812 36.354 159.812 33.384L159.812 6.708C159.812 3.738 159.272 3.414 155.492 2.982L155.492 1.092 172.07 1.092 172.07 2.982C168.29 3.414 167.75 3.738 167.75 6.708zM203.066 37.596C207.062 37.596 208.844 33.006 208.844 25.932 208.844 17.94 207.008 11.838 202.688 11.838 198.692 11.838 196.856 16.374 196.856 23.448 196.856 31.44 198.746 37.596 203.066 37.596zM202.796 39.54C194.534 39.54 188.918 33.924 188.918 25.338 188.918 16.158 194.912 9.84 202.958 9.84 211.22 9.84 216.836 15.564 216.836 24.096 216.836 33.276 210.842 39.54 202.796 39.54zM231.47 28.794C229.58 28.794 227.69 28.524 226.016 27.93 224.99 28.902 224.18 30.036 224.18 31.17 224.18 32.304 224.882 33.006 226.07 33.006L237.194 33.006C243.458 33.006 246.698 35.652 246.698 40.404 246.698 47.208 239.894 50.988 230.93 50.988 223.046 50.988 218.132 48.612 218.132 44.238 218.132 41.484 220.616 39.972 223.208 39.162 221.102 38.352 219.86 36.462 219.86 34.248 219.86 31.062 222.398 29.01 224.882 27.444 222.02 26.04 219.914 23.556 219.914 19.722 219.914 13.512 224.936 9.84 231.686 9.84 233.684 9.84 235.142 10.218 236.492 10.596L245.618 10.38 245.618 13.512 243.404 13.512 239.624 13.35C241.514 14.592 243.026 16.86 243.026 19.56 243.026 25.284 238.22 28.794 231.47 28.794zM237.086 39.864L224.072 39.864C223.37 40.674 223.046 41.754 223.046 43.05 223.046 46.668 226.232 48.936 231.308 48.936 236.6 48.936 241.352 47.154 241.352 43.104 241.352 40.728 239.732 39.864 237.086 39.864zM231.794 27.012C234.764 27.012 235.952 24.042 235.952 19.722 235.952 15.402 234.494 11.676 231.362 11.676 228.338 11.676 227.096 14.646 227.096 18.858 227.096 23.286 228.608 27.012 231.794 27.012zM261.44 37.596C265.436 37.596 267.218 33.006 267.218 25.932 267.218 17.94 265.382 11.838 261.062 11.838 257.066 11.838 255.23 16.374 255.23 23.448 255.23 31.44 257.12 37.596 261.44 37.596zM261.17 39.54C252.908 39.54 247.292 33.924 247.292 25.338 247.292 16.158 253.286 9.84 261.332 9.84 269.594 9.84 275.21 15.564 275.21 24.096 275.21 33.276 269.216 39.54 261.17 39.54zM313.28 32.628L310.796 26.526 296.27 26.526 293.948 32.574C293.624 33.384 293.462 34.086 293.462 34.68 293.462 36.408 294.812 37.002 298.106 37.11L298.106 39 286.982 39 286.982 37.11C288.494 36.894 289.574 36.57 290.168 35.112L301.94 4.872 300.266.822 308.69.822 322.568 35.112C323.162 36.57 324.296 36.894 325.754 37.11L325.754 39 309.23 39 309.23 37.11C312.416 37.002 313.766 36.462 313.766 34.734 313.766 34.14 313.604 33.438 313.28 32.628zM303.398 7.95L297.134 24.204 309.878 24.204 303.398 7.95zM337.742 39.54C333.638 39.54 330.236 38.46 328.022 36.84L327.698 29.442 329.696 29.442C330.884 34.14 333.638 37.65 337.796 37.65 340.712 37.65 342.926 36.246 342.926 33.276 342.926 30.36 340.928 29.226 336.662 27.714 330.884 25.716 327.914 23.448 327.914 18.426 327.914 13.026 332.018 9.84 337.958 9.84 341.468 9.84 344.492 10.758 346.76 12.216L346.76 18.75 344.924 18.75C344.06 14.862 341.792 11.73 337.958 11.73 335.204 11.73 333.584 13.35 333.584 15.672 333.584 18.156 335.258 19.344 339.416 20.856 345.302 22.908 348.704 25.122 348.704 30.414 348.704 36.192 344.384 39.54 337.742 39.54zM362.312 39.54C358.208 39.54 354.806 38.46 352.592 36.84L352.268 29.442 354.266 29.442C355.454 34.14 358.208 37.65 362.366 37.65 365.282 37.65 367.496 36.246 367.496 33.276 367.496 30.36 365.498 29.226 361.232 27.714 355.454 25.716 352.484 23.448 352.484 18.426 352.484 13.026 356.588 9.84 362.528 9.84 366.038 9.84 369.062 10.758 371.33 12.216L371.33 18.75 369.494 18.75C368.63 14.862 366.362 11.73 362.528 11.73 359.774 11.73 358.154 13.35 358.154 15.672 358.154 18.156 359.828 19.344 363.986 20.856 369.872 22.908 373.274 25.122 373.274 30.414 373.274 36.192 368.954 39.54 362.312 39.54zM389.69 9.84C396.926 9.84 400.706 14.646 400.706 21.126L400.706 22.368 383.102 22.368C382.886 29.928 386.774 34.41 392.066 34.41 395.738 34.41 398.168 32.844 400.112 30.036L400.976 30.522C399.572 35.868 395.63 39.54 389.42 39.54 381.59 39.54 376.352 33.762 376.352 25.446 376.352 16.212 382.292 9.84 389.69 9.84zM389.15 11.838C385.586 11.838 383.642 15.402 383.21 20.37L394.01 20.37C394.01 15.294 392.66 11.838 389.15 11.838zM413.072 3.36L413.072 10.38 420.092 10.38 420.092 12.864 413.072 12.864 413.072 30.738C413.072 34.032 414.314 35.436 416.852 35.436 418.364 35.436 419.552 34.95 420.902 33.924L421.55 34.896C419.822 37.596 417.122 39.54 413.234 39.54 408.806 39.54 405.566 37.218 405.566 31.17L405.566 12.864 402.218 12.864 402.218 11.622C405.944 9.948 409.13 6.924 411.452 3.36L413.072 3.36zM433.43 39.54C429.326 39.54 425.924 38.46 423.71 36.84L423.386 29.442 425.384 29.442C426.572 34.14 429.326 37.65 433.484 37.65 436.4 37.65 438.614 36.246 438.614 33.276 438.614 30.36 436.616 29.226 432.35 27.714 426.572 25.716 423.602 23.448 423.602 18.426 423.602 13.026 427.706 9.84 433.646 9.84 437.156 9.84 440.18 10.758 442.448 12.216L442.448 18.75 440.612 18.75C439.748 14.862 437.48 11.73 433.646 11.73 430.892 11.73 429.272 13.35 429.272 15.672 429.272 18.156 430.946 19.344 435.104 20.856 440.99 22.908 444.392 25.122 444.392 30.414 444.392 36.192 440.072 39.54 433.43 39.54zM8.27 114L1.7 114 1.7 93 8.27 93C13.22 93 18.05 96.18 18.05 103.5 18.05 110.82 13.22 114 8.27 114zM5.6 96.6L5.6 110.4 7.04 110.4C8.87 110.4 10.37 110.01 11.78 109.05 13.22 108.09 14.09 106.17 14.09 103.5 14.09 100.83 13.22 98.91 11.78 97.95 10.37 96.99 8.87 96.6 7.04 96.6L5.6 96.6zM23.03 112.05C21.65 110.58 20.96 108.69 20.96 106.44 20.96 104.19 21.65 102.33 23.03 100.86 24.41 99.39 26.27 98.64 28.64 98.64 31.01 98.64 32.87 99.39 34.25 100.86 35.63 102.33 36.32 104.19 36.32 106.44 36.32 108.69 35.63 110.58 34.25 112.05 32.87 113.52 31.01 114.24 28.64 114.24 26.27 114.24 24.41 113.52 23.03 112.05zM25.88 103.17C25.19 104.04 24.86 105.15 24.86 106.44 24.86 107.73 25.19 108.84 25.88 109.74 26.57 110.61 27.47 111.06 28.64 111.06 29.81 111.06 30.71 110.61 31.4 109.74 32.09 108.84 32.42 107.73 32.42 106.44 32.42 105.15 32.09 104.04 31.4 103.17 30.71 102.27 29.81 101.82 28.64 101.82 27.47 101.82 26.57 102.27 25.88 103.17zM53.21 109.26L55.91 98.88 59.66 98.88 54.83 114 51.53 114 48.92 104.22 46.31 114 43.01 114 38.18 98.88 41.93 98.88 44.63 109.26 47.18 98.88 50.66 98.88 53.21 109.26zM62.39 114L62.39 98.88 66.11 98.88 66.11 101.31C67.34 99.54 68.9 98.64 70.79 98.64 73.58 98.64 75.44 100.23 75.44 103.2L75.44 114 71.72 114 71.72 104.31C71.72 102.66 71 101.82 69.56 101.82 67.64 101.82 66.11 104.16 66.11 107.97L66.11 114 62.39 114zM79.94 114L79.94 92.76 83.66 92.76 83.66 114 79.94 114zM89.18 112.05C87.8 110.58 87.11 108.69 87.11 106.44 87.11 104.19 87.8 102.33 89.18 100.86 90.56 99.39 92.42 98.64 94.79 98.64 97.16 98.64 99.02 99.39 100.4 100.86 101.78 102.33 102.47 104.19 102.47 106.44 102.47 108.69 101.78 110.58 100.4 112.05 99.02 113.52 97.16 114.24 94.79 114.24 92.42 114.24 90.56 113.52 89.18 112.05zM92.03 103.17C91.34 104.04 91.01 105.15 91.01 106.44 91.01 107.73 91.34 108.84 92.03 109.74 92.72 110.61 93.62 111.06 94.79 111.06 95.96 111.06 96.86 110.61 97.55 109.74 98.24 108.84 98.57 107.73 98.57 106.44 98.57 105.15 98.24 104.04 97.55 103.17 96.86 102.27 95.96 101.82 94.79 101.82 93.62 101.82 92.72 102.27 92.03 103.17zM108.68 103.56L105.53 102.84C106.01 100.32 108.26 98.64 111.29 98.64 115.52 98.64 117.65 100.74 117.65 104.97L117.65 114 114.59 114 114.2 112.08C113.03 113.52 111.47 114.24 109.55 114.24 106.88 114.24 104.96 112.56 104.96 109.65 104.96 106.65 107.57 104.7 111.41 104.7L113.93 104.7 113.93 104.04C113.93 102.57 113.06 101.82 111.29 101.82 109.94 101.82 109.07 102.39 108.68 103.56zM108.86 109.59C108.86 110.4 109.43 111.06 110.42 111.06 111.35 111.06 112.16 110.76 112.85 110.19 113.57 109.62 113.93 108.87 113.93 107.94L113.93 107.64 111.44 107.64C109.73 107.64 108.86 108.3 108.86 109.59zM127.79 98.64C129.26 98.64 130.76 99.39 131.45 100.26L131.45 92.76 135.17 92.76 135.17 114 131.45 114 131.45 112.44C130.97 113.31 129.5 114.24 127.79 114.24 123.35 114.24 120.89 111.21 120.89 106.44 120.89 101.67 123.35 98.64 127.79 98.64zM125.78 103.05C125.12 103.86 124.79 105 124.79 106.44 124.79 107.88 125.12 109.02 125.78 109.83 126.44 110.64 127.28 111.06 128.3 111.06 129.32 111.06 130.16 110.67 130.79 109.86 131.45 109.05 131.78 107.91 131.78 106.44 131.78 104.97 131.45 103.86 130.79 103.05 130.16 102.24 129.32 101.82 128.3 101.82 127.28 101.82 126.44 102.24 125.78 103.05zM159.53 106.86L159.53 93 163.43 93 163.43 114 159.32 114 151.61 100.14 151.61 114 147.71 114 147.71 93 151.82 93 159.53 106.86zM169.49 112.05C168.11 110.58 167.42 108.69 167.42 106.44 167.42 104.19 168.11 102.33 169.49 100.86 170.87 99.39 172.73 98.64 175.1 98.64 177.47 98.64 179.33 99.39 180.71 100.86 182.09 102.33 182.78 104.19 182.78 106.44 182.78 108.69 182.09 110.58 180.71 112.05 179.33 113.52 177.47 114.24 175.1 114.24 172.73 114.24 170.87 113.52 169.49 112.05zM172.34 103.17C171.65 104.04 171.32 105.15 171.32 106.44 171.32 107.73 171.65 108.84 172.34 109.74 173.03 110.61 173.93 111.06 175.1 111.06 176.27 111.06 177.17 110.61 177.86 109.74 178.55 108.84 178.88 107.73 178.88 106.44 178.88 105.15 178.55 104.04 177.86 103.17 177.17 102.27 176.27 101.82 175.1 101.82 173.93 101.82 173.03 102.27 172.34 103.17zM199.67 109.26L202.37 98.88 206.12 98.88 201.29 114 197.99 114 195.38 104.22 192.77 114 189.47 114 184.64 98.88 188.39 98.88 191.09 109.26 193.64 98.88 197.12 98.88 199.67 109.26z" transform="translate(51 176)"/>
    <path fill="#000" fill-rule="nonzero" d="M739.849612,250.376941 L739.849612,258.5 L729.069307,258.5 L729.069307,250.376941 L720.92629,250.376941 L720.92629,239.623059 L729.069307,239.623059 L729.069307,231.5 L739.849612,231.5 L739.849612,239.623059 L747.992629,239.623059 L747.992629,250.376941 L739.849612,250.376941 Z M731.591016,250.376941 L731.591016,255.984472 L737.327903,255.984472 L737.327903,250.376941 L731.591016,250.376941 Z M729.069307,247.861413 L729.069307,242.138587 L723.447999,242.138587 L723.447999,247.861413 L729.069307,247.861413 Z M731.591016,234.015528 L731.591016,247.861413 L745.47092,247.861413 L745.47092,242.138587 L737.327903,242.138587 L737.327903,234.015528 L731.591016,234.015528 Z M644.802223,157.813926 L635.984413,160.051746 C633.64807,154.009633 629.352214,150.951279 622.946112,150.951279 C618.650256,150.951279 615.032693,152.443159 612.168789,155.501513 C609.380251,158.559866 607.948299,162.960912 607.948299,168.704649 C607.948299,174.448387 609.380251,178.849432 612.168789,181.907786 C615.032693,184.966139 618.650256,186.458019 622.946112,186.458019 C629.352214,186.458019 633.64807,183.399666 635.984413,177.357552 L644.802223,179.595372 C642.315148,189.665561 634.401729,195.409298 622.946112,195.409298 C615.937084,195.409298 610.058544,193.022291 605.235126,188.322869 C600.411709,183.623448 598,177.059176 598,168.704649 C598,160.350122 600.411709,153.785851 605.235126,149.086429 C610.058544,144.387008 615.937084,142 622.946112,142 C634.401729,142 642.315148,147.743737 644.802223,157.813926 Z M703.847217,157.813926 L695.029407,160.051746 C692.693064,154.009633 688.397208,150.951279 681.991107,150.951279 C677.695251,150.951279 674.077688,152.443159 671.213783,155.501513 C668.425245,158.559866 666.993293,162.960912 666.993293,168.704649 C666.993293,174.448387 668.425245,178.849432 671.213783,181.907786 C674.077688,184.966139 677.695251,186.458019 681.991107,186.458019 C688.397208,186.458019 692.693064,183.399666 695.029407,177.357552 L703.847217,179.595372 C701.360143,189.665561 693.446723,195.409298 681.991107,195.409298 C674.982078,195.409298 669.103538,193.022291 664.280121,188.322869 C659.456703,183.623448 657.044994,177.059176 657.044994,168.704649 C657.044994,160.350122 659.456703,153.785851 664.280121,149.086429 C669.103538,144.387008 674.982078,142 681.991107,142 C693.446723,142 701.360143,147.743737 703.847217,157.813926 Z M626.819082,238.089494 L613.579806,238.089494 L613.579806,258.528248 L603.782239,258.528248 L603.782239,206.312454 L626.819082,206.312454 C637.596406,206.312454 643.324214,212.652943 643.324214,222.200974 C643.324214,231.749005 637.596406,238.089494 626.819082,238.089494 Z M613.579806,229.138215 L626.442253,229.138215 C631.039573,229.138215 633.375915,226.825801 633.375915,222.200974 C633.375915,217.576146 631.039573,215.263733 626.442253,215.263733 L613.579806,215.263733 L613.579806,229.138215 Z M669.652035,208.550273 C673.344964,206.685424 677.414722,205.715702 682.012042,205.715702 C691.131316,205.715702 698.743271,209.221619 703.340591,217.501552 C705.676934,221.604222 706.882788,226.602019 706.882788,232.420351 C706.882788,244.057014 701.682541,252.560729 694.372049,256.365022 C690.67912,258.229872 686.609362,259.125 682.012042,259.125 C672.892768,259.125 665.356178,255.619082 660.608127,247.339149 C658.271784,243.23648 657.141295,238.238682 657.141295,232.420351 C657.141295,220.783688 662.341542,212.205379 669.652035,208.550273 Z M692.634447,218.997576 C689.845908,216.013817 686.303711,214.521937 682.007855,214.521937 C677.711999,214.521937 674.169801,216.013817 671.305897,218.997576 C668.517359,221.981336 667.085407,226.382382 667.085407,232.275307 C667.085407,238.168232 668.517359,242.569278 671.305897,245.553038 C674.169801,248.536797 677.711999,250.028677 682.007855,250.028677 C686.303711,250.028677 689.845908,248.536797 692.634447,245.553038 C695.498351,242.569278 696.930303,238.168232 696.930303,232.275307 C696.930303,226.382382 695.498351,221.981336 692.634447,218.997576 Z"/>
  </g>
</svg>
