<svg xmlns="http://www.w3.org/2000/svg" width="800" height="400" viewBox="0 0 800 400">
  <g fill="none" fill-rule="evenodd">
    <rect width="800" height="400" fill="#41426A"/>
    <g fill-rule="nonzero" transform="translate(-10 -65)">
      <path fill="#329374" d="M3.5 13.7727273C4.20290786 13.7727273 4.77272727 13.2029079 4.77272727 12.5 4.77272727 11.7970921 4.20290786 11.2272727 3.5 11.2272727 2.79709214 11.2272727 2.22727273 11.7970921 2.22727273 12.5 2.22727273 13.2029079 2.79709214 13.7727273 3.5 13.7727273zM3.5 16C1.56700338 16 0 14.4329966 0 12.5 0 10.5670034 1.56700338 9 3.5 9 5.43299662 9 7 10.5670034 7 12.5 7 14.4329966 5.43299662 16 3.5 16zM3.5 4.77272727C4.20290786 4.77272727 4.77272727 4.20290786 4.77272727 3.5 4.77272727 2.79709214 4.20290786 2.22727273 3.5 2.22727273 2.79709214 2.22727273 2.22727273 2.79709214 2.22727273 3.5 2.22727273 4.20290786 2.79709214 4.77272727 3.5 4.77272727zM3.5 7C1.56700338 7 0 5.43299662 0 3.5 0 1.56700338 1.56700338 0 3.5 0 5.43299662 0 7 1.56700338 7 3.5 7 5.43299662 5.43299662 7 3.5 7z" transform="translate(461 89)"/>
      <path fill="#E4E7ED" d="M11,19.6819512 C15.7949093,19.6819512 19.6819512,15.7949093 19.6819512,11 C19.6819512,6.20509074 15.7949093,2.31804878 11,2.31804878 C6.20509074,2.31804878 2.31804878,6.20509074 2.31804878,11 C2.31804878,15.7949093 6.20509074,19.6819512 11,19.6819512 Z M11,22 C4.92486775,22 0,17.0751322 0,11 C0,4.92486775 4.92486775,0 11,0 C17.0751322,0 22,4.92486775 22,11 C22,17.0751322 17.0751322,22 11,22 Z" transform="rotate(180 255.5 61.5)"/>
      <g transform="matrix(-1 0 0 1 93 100)">
        <path stroke="#FFE0A6" stroke-width="2.425" d="M18.7487362,26.78725 C18.1492265,17.377477 10.622523,9.85077345 1.21275,9.2512638 C1.21275,14.8878637 1.21275,15.7951449 1.21275,26.78725 C9.61743115,26.78725 10.3674365,26.78725 18.7487362,26.78725 Z"/>
        <path fill="#FFE0A6" d="M16.1538462,2.15384615 L16.1538462,11.8461538 L25.8461538,11.8461538 L25.8461538,2.15384615 L16.1538462,2.15384615 Z M14,0 L28,0 L28,14 L14,14 L14,0 Z" transform="matrix(1 0 0 -1 0 14)"/>
      </g>
      <path fill="#FCC6C2" d="M4 5.45454545C4.80332327 5.45454545 5.45454545 4.80332327 5.45454545 4 5.45454545 3.19667673 4.80332327 2.54545455 4 2.54545455 3.19667673 2.54545455 2.54545455 3.19667673 2.54545455 4 2.54545455 4.80332327 3.19667673 5.45454545 4 5.45454545zM4 8C1.790861 8 0 6.209139 0 4 0 1.790861 1.790861 0 4 0 6.209139 0 8 1.790861 8 4 8 6.209139 6.209139 8 4 8zM4 16.4545455C4.80332327 16.4545455 5.45454545 15.8033233 5.45454545 15 5.45454545 14.1966767 4.80332327 13.5454545 4 13.5454545 3.19667673 13.5454545 2.54545455 14.1966767 2.54545455 15 2.54545455 15.8033233 3.19667673 16.4545455 4 16.4545455zM4 19C1.790861 19 0 17.209139 0 15 0 12.790861 1.790861 11 4 11 6.209139 11 8 12.790861 8 15 8 17.209139 6.209139 19 4 19zM15 16.4545455C15.8033233 16.4545455 16.4545455 15.8033233 16.4545455 15 16.4545455 14.1966767 15.8033233 13.5454545 15 13.5454545 14.1966767 13.5454545 13.5454545 14.1966767 13.5454545 15 13.5454545 15.8033233 14.1966767 16.4545455 15 16.4545455zM15 19C12.790861 19 11 17.209139 11 15 11 12.790861 12.790861 11 15 11 17.209139 11 19 12.790861 19 15 19 17.209139 17.209139 19 15 19z" transform="matrix(1 0 0 -1 758 436)"/>
    </g>
    <path fill="#FFF" fill-rule="nonzero" d="M15.632 7.252L12.716 7.252 12.716 37.006C12.716 40.192 14.066 40.84 16.928 40.84L17.9 40.84C24.704 40.84 29.456 34.846 29.456 24.424 29.456 14.758 25.19 7.252 15.632 7.252zM18.062 43L.458 43 .458 41.11C4.238 40.678 4.778 40.354 4.778 37.384L4.778 10.708C4.778 7.738 4.238 7.414.458 6.982L.458 5.092 17.036 5.092C31.346 5.092 37.826 13.3 37.826 23.29 37.826 35.764 29.564 43 18.062 43zM51.434 13.84L51.434 38.842C51.434 40.732 52.298 41.056 54.836 41.218L54.836 43 40.58 43 40.58 41.218C43.118 41.056 43.982 40.732 43.982 38.842L43.982 19.726 40.742 17.836 40.742 16.81 50.246 13.84 51.434 13.84zM47.6 10.6C45.008 10.6 43.226 8.602 43.226 6.334 43.226 4.012 45.008 2.068 47.6 2.068 50.246 2.068 52.028 4.012 52.028 6.334 52.028 8.602 50.246 10.6 47.6 10.6zM68.93 32.794C67.04 32.794 65.15 32.524 63.476 31.93 62.45 32.902 61.64 34.036 61.64 35.17 61.64 36.304 62.342 37.006 63.53 37.006L74.654 37.006C80.918 37.006 84.158 39.652 84.158 44.404 84.158 51.208 77.354 54.988 68.39 54.988 60.506 54.988 55.592 52.612 55.592 48.238 55.592 45.484 58.076 43.972 60.668 43.162 58.562 42.352 57.32 40.462 57.32 38.248 57.32 35.062 59.858 33.01 62.342 31.444 59.48 30.04 57.374 27.556 57.374 23.722 57.374 17.512 62.396 13.84 69.146 13.84 71.144 13.84 72.602 14.218 73.952 14.596L83.078 14.38 83.078 17.512 80.864 17.512 77.084 17.35C78.974 18.592 80.486 20.86 80.486 23.56 80.486 29.284 75.68 32.794 68.93 32.794zM74.546 43.864L61.532 43.864C60.83 44.674 60.506 45.754 60.506 47.05 60.506 50.668 63.692 52.936 68.768 52.936 74.06 52.936 78.812 51.154 78.812 47.104 78.812 44.728 77.192 43.864 74.546 43.864zM69.254 31.012C72.224 31.012 73.412 28.042 73.412 23.722 73.412 19.402 71.954 15.676 68.822 15.676 65.798 15.676 64.556 18.646 64.556 22.858 64.556 27.286 66.068 31.012 69.254 31.012zM96.038 13.84L96.038 38.842C96.038 40.732 96.902 41.056 99.44 41.218L99.44 43 85.184 43 85.184 41.218C87.722 41.056 88.586 40.732 88.586 38.842L88.586 19.726 85.346 17.836 85.346 16.81 94.85 13.84 96.038 13.84zM92.204 10.6C89.612 10.6 87.83 8.602 87.83 6.334 87.83 4.012 89.612 2.068 92.204 2.068 94.85 2.068 96.632 4.012 96.632 6.334 96.632 8.602 94.85 10.6 92.204 10.6zM111.212 7.36L111.212 14.38 118.232 14.38 118.232 16.864 111.212 16.864 111.212 34.738C111.212 38.032 112.454 39.436 114.992 39.436 116.504 39.436 117.692 38.95 119.042 37.924L119.69 38.896C117.962 41.596 115.262 43.54 111.374 43.54 106.946 43.54 103.706 41.218 103.706 35.17L103.706 16.864 100.358 16.864 100.358 15.622C104.084 13.948 107.27 10.924 109.592 7.36L111.212 7.36zM132.434 39.22C134 39.22 135.08 38.626 136.592 37.492L136.592 27.394 131.948 29.284C129.68 30.148 128.276 31.39 128.276 34.414 128.276 37.222 129.572 39.22 132.434 39.22zM144.044 22.696L144.044 37.006C144.044 38.842 144.422 40.03 145.826 40.03 146.636 40.03 147.392 39.76 147.986 39.49L148.31 40.678C146.744 42.514 144.692 43.54 142.154 43.54 139.238 43.54 137.294 41.758 136.754 38.788 135.026 41.056 132.218 43.432 128.33 43.432 123.956 43.432 121.04 40.786 121.04 36.466 121.04 31.822 124.388 29.932 128.438 28.42L136.592 25.45 136.592 20.86C136.592 17.782 135.566 15.568 132.758 15.568 130.166 15.568 129.14 17.512 129.14 20.104 129.14 21.184 129.302 22.264 129.572 23.452L125.09 24.046C123.632 23.56 122.714 22.426 122.714 20.644 122.714 16.162 127.358 13.84 133.352 13.84 140.264 13.84 144.044 16.378 144.044 22.696zM159.974.718L159.974 38.842C159.974 40.732 160.838 41.056 163.322 41.218L163.322 43 149.12 43 149.12 41.218C151.604 41.056 152.468 40.732 152.468 38.842L152.468 6.118 149.228 4.444 149.228 3.31 158.786.718 159.974.718zM188.54 43.54C183.41 43.54 178.982 41.974 176.552 39.976L176.066 30.742 178.334 30.742C179.63 37.168 183.086 41.38 188.54 41.38 192.914 41.38 195.668 39.004 195.668 35.278 195.668 31.282 193.346 29.608 186.866 27.232 180.494 25.018 176.39 22.102 176.39 15.73 176.39 9.142 181.412 4.552 188.972 4.552 193.508 4.552 197.558 5.794 200.204 7.738L200.204 15.784 198.206 15.784C197.18 10.06 194.102 6.712 188.972 6.712 185.192 6.712 182.816 9.034 182.816 12.436 182.816 16.216 184.868 17.782 190.646 19.888 197.882 22.48 202.256 25.288 202.256 32.092 202.256 39.652 196.046 43.54 188.54 43.54zM215.108 7.36L215.108 14.38 222.128 14.38 222.128 16.864 215.108 16.864 215.108 34.738C215.108 38.032 216.35 39.436 218.888 39.436 220.4 39.436 221.588 38.95 222.938 37.924L223.586 38.896C221.858 41.596 219.158 43.54 215.27 43.54 210.842 43.54 207.602 41.218 207.602 35.17L207.602 16.864 204.254 16.864 204.254 15.622C207.98 13.948 211.166 10.924 213.488 7.36L215.108 7.36zM241.136 35.494L247.184 19.51C247.454 18.862 247.562 18.43 247.562 17.998 247.562 16.756 246.698 16.486 243.89 16.162L243.89 14.38 253.178 14.38 253.178 16.162C251.288 16.702 250.91 17.08 250.424 18.214L238.544 48.13C236.762 52.504 234.926 54.88 231.416 54.88 229.58 54.88 227.798 53.962 227.258 52.396L227.258 49.642C228.392 49.912 229.364 50.128 230.93 50.128 233.846 50.128 235.628 49.318 236.762 46.348L237.68 44.026 226.07 18.214C225.584 17.08 225.26 16.702 223.316 16.162L223.316 14.38 238.004 14.38 238.004 16.162C235.25 16.486 234.332 16.756 234.332 17.998 234.332 18.43 234.44 18.862 234.656 19.51L241.136 35.494zM264.41.718L264.41 38.842C264.41 40.732 265.274 41.056 267.758 41.218L267.758 43 253.556 43 253.556 41.218C256.04 41.056 256.904 40.732 256.904 38.842L256.904 6.118 253.664 4.444 253.664 3.31 263.222.718 264.41.718zM283.148 13.84C290.384 13.84 294.164 18.646 294.164 25.126L294.164 26.368 276.56 26.368C276.344 33.928 280.232 38.41 285.524 38.41 289.196 38.41 291.626 36.844 293.57 34.036L294.434 34.522C293.03 39.868 289.088 43.54 282.878 43.54 275.048 43.54 269.81 37.762 269.81 29.446 269.81 20.212 275.75 13.84 283.148 13.84zM282.608 15.838C279.044 15.838 277.1 19.402 276.668 24.37L287.468 24.37C287.468 19.294 286.118 15.838 282.608 15.838zM332.234 39.814L332.234 30.85C332.234 27.88 331.748 27.502 327.914 27.07L327.914 25.234 344.006 25.234 344.006 27.07C340.226 27.502 339.686 27.88 339.686 30.85L339.686 39.814C336.176 42.082 331.478 43.54 325.916 43.54 313.928 43.54 307.232 35.44 307.232 24.964 307.232 12.436 315.656 4.552 326.618 4.552 331.424 4.552 335.528 5.632 338.66 7.684L338.714 16.432 336.662 16.432C335.366 10.168 332.234 6.766 326.834 6.766 319.004 6.766 315.602 14.272 315.602 23.506 315.602 32.902 319.166 41.272 326.888 41.272 328.994 41.272 330.776 40.948 332.234 39.814zM372.788 20.212L372.788 37.276C372.788 39.112 372.896 39.706 374.948 39.868L376.298 39.976 376.298 41.596 366.47 43.54 365.12 43.54 365.282 38.356C363.014 40.894 360.152 43.54 355.886 43.54 351.134 43.54 348.056 40.84 348.056 34.792L348.056 20.752C348.056 18.97 347.678 18.106 345.572 17.728L344.708 17.566 344.708 15.946 354.644 13.894 355.832 13.894 355.562 20.32 355.562 33.82C355.562 37.114 356.804 39.058 359.774 39.058 361.934 39.058 363.554 38.14 365.282 37.006L365.282 20.752C365.282 18.97 364.904 18.106 362.798 17.728L361.988 17.566 361.988 15.946 371.816 13.894 373.004 13.894 372.788 20.212zM388.934 13.84L388.934 38.842C388.934 40.732 389.798 41.056 392.336 41.218L392.336 43 378.08 43 378.08 41.218C380.618 41.056 381.482 40.732 381.482 38.842L381.482 19.726 378.242 17.836 378.242 16.81 387.746 13.84 388.934 13.84zM385.1 10.6C382.508 10.6 380.726 8.602 380.726 6.334 380.726 4.012 382.508 2.068 385.1 2.068 387.746 2.068 389.528 4.012 389.528 6.334 389.528 8.602 387.746 10.6 385.1 10.6zM408.914 16.27C404.378 16.27 401.732 20.698 401.732 27.448 401.732 34.036 404.432 38.95 409.346 38.95 411.182 38.95 412.694 38.356 413.936 37.222L413.936 22.966C413.936 18.754 412.154 16.27 408.914 16.27zM413.936 6.118L410.696 4.444 410.696 3.31 420.254.718 421.442.718 421.442 37.276C421.442 39.112 421.55 39.706 423.602 39.868L424.952 39.976 424.952 41.596 415.124 43.54 413.72 43.54 413.936 38.518C411.776 41.596 409.022 43.54 405.242 43.54 398.708 43.54 394.334 38.248 394.334 30.04 394.334 19.834 400.382 13.948 408.104 13.948 410.588 13.948 412.64 14.65 413.936 15.838L413.936 6.118zM440.18 13.84C447.416 13.84 451.196 18.646 451.196 25.126L451.196 26.368 433.592 26.368C433.376 33.928 437.264 38.41 442.556 38.41 446.228 38.41 448.658 36.844 450.602 34.036L451.466 34.522C450.062 39.868 446.12 43.54 439.91 43.54 432.08 43.54 426.842 37.762 426.842 29.446 426.842 20.212 432.782 13.84 440.18 13.84zM439.64 15.838C436.076 15.838 434.132 19.402 433.7 24.37L444.5 24.37C444.5 19.294 443.15 15.838 439.64 15.838zM8.27 118L1.7 118 1.7 97 8.27 97C13.22 97 18.05 100.18 18.05 107.5 18.05 114.82 13.22 118 8.27 118zM5.6 100.6L5.6 114.4 7.04 114.4C8.87 114.4 10.37 114.01 11.78 113.05 13.22 112.09 14.09 110.17 14.09 107.5 14.09 104.83 13.22 102.91 11.78 101.95 10.37 100.99 8.87 100.6 7.04 100.6L5.6 100.6zM23.03 116.05C21.65 114.58 20.96 112.69 20.96 110.44 20.96 108.19 21.65 106.33 23.03 104.86 24.41 103.39 26.27 102.64 28.64 102.64 31.01 102.64 32.87 103.39 34.25 104.86 35.63 106.33 36.32 108.19 36.32 110.44 36.32 112.69 35.63 114.58 34.25 116.05 32.87 117.52 31.01 118.24 28.64 118.24 26.27 118.24 24.41 117.52 23.03 116.05zM25.88 107.17C25.19 108.04 24.86 109.15 24.86 110.44 24.86 111.73 25.19 112.84 25.88 113.74 26.57 114.61 27.47 115.06 28.64 115.06 29.81 115.06 30.71 114.61 31.4 113.74 32.09 112.84 32.42 111.73 32.42 110.44 32.42 109.15 32.09 108.04 31.4 107.17 30.71 106.27 29.81 105.82 28.64 105.82 27.47 105.82 26.57 106.27 25.88 107.17zM53.21 113.26L55.91 102.88 59.66 102.88 54.83 118 51.53 118 48.92 108.22 46.31 118 43.01 118 38.18 102.88 41.93 102.88 44.63 113.26 47.18 102.88 50.66 102.88 53.21 113.26zM62.39 118L62.39 102.88 66.11 102.88 66.11 105.31C67.34 103.54 68.9 102.64 70.79 102.64 73.58 102.64 75.44 104.23 75.44 107.2L75.44 118 71.72 118 71.72 108.31C71.72 106.66 71 105.82 69.56 105.82 67.64 105.82 66.11 108.16 66.11 111.97L66.11 118 62.39 118zM79.94 118L79.94 96.76 83.66 96.76 83.66 118 79.94 118zM89.18 116.05C87.8 114.58 87.11 112.69 87.11 110.44 87.11 108.19 87.8 106.33 89.18 104.86 90.56 103.39 92.42 102.64 94.79 102.64 97.16 102.64 99.02 103.39 100.4 104.86 101.78 106.33 102.47 108.19 102.47 110.44 102.47 112.69 101.78 114.58 100.4 116.05 99.02 117.52 97.16 118.24 94.79 118.24 92.42 118.24 90.56 117.52 89.18 116.05zM92.03 107.17C91.34 108.04 91.01 109.15 91.01 110.44 91.01 111.73 91.34 112.84 92.03 113.74 92.72 114.61 93.62 115.06 94.79 115.06 95.96 115.06 96.86 114.61 97.55 113.74 98.24 112.84 98.57 111.73 98.57 110.44 98.57 109.15 98.24 108.04 97.55 107.17 96.86 106.27 95.96 105.82 94.79 105.82 93.62 105.82 92.72 106.27 92.03 107.17zM108.68 107.56L105.53 106.84C106.01 104.32 108.26 102.64 111.29 102.64 115.52 102.64 117.65 104.74 117.65 108.97L117.65 118 114.59 118 114.2 116.08C113.03 117.52 111.47 118.24 109.55 118.24 106.88 118.24 104.96 116.56 104.96 113.65 104.96 110.65 107.57 108.7 111.41 108.7L113.93 108.7 113.93 108.04C113.93 106.57 113.06 105.82 111.29 105.82 109.94 105.82 109.07 106.39 108.68 107.56zM108.86 113.59C108.86 114.4 109.43 115.06 110.42 115.06 111.35 115.06 112.16 114.76 112.85 114.19 113.57 113.62 113.93 112.87 113.93 111.94L113.93 111.64 111.44 111.64C109.73 111.64 108.86 112.3 108.86 113.59zM127.79 102.64C129.26 102.64 130.76 103.39 131.45 104.26L131.45 96.76 135.17 96.76 135.17 118 131.45 118 131.45 116.44C130.97 117.31 129.5 118.24 127.79 118.24 123.35 118.24 120.89 115.21 120.89 110.44 120.89 105.67 123.35 102.64 127.79 102.64zM125.78 107.05C125.12 107.86 124.79 109 124.79 110.44 124.79 111.88 125.12 113.02 125.78 113.83 126.44 114.64 127.28 115.06 128.3 115.06 129.32 115.06 130.16 114.67 130.79 113.86 131.45 113.05 131.78 111.91 131.78 110.44 131.78 108.97 131.45 107.86 130.79 107.05 130.16 106.24 129.32 105.82 128.3 105.82 127.28 105.82 126.44 106.24 125.78 107.05zM159.53 110.86L159.53 97 163.43 97 163.43 118 159.32 118 151.61 104.14 151.61 118 147.71 118 147.71 97 151.82 97 159.53 110.86zM169.49 116.05C168.11 114.58 167.42 112.69 167.42 110.44 167.42 108.19 168.11 106.33 169.49 104.86 170.87 103.39 172.73 102.64 175.1 102.64 177.47 102.64 179.33 103.39 180.71 104.86 182.09 106.33 182.78 108.19 182.78 110.44 182.78 112.69 182.09 114.58 180.71 116.05 179.33 117.52 177.47 118.24 175.1 118.24 172.73 118.24 170.87 117.52 169.49 116.05zM172.34 107.17C171.65 108.04 171.32 109.15 171.32 110.44 171.32 111.73 171.65 112.84 172.34 113.74 173.03 114.61 173.93 115.06 175.1 115.06 176.27 115.06 177.17 114.61 177.86 113.74 178.55 112.84 178.88 111.73 178.88 110.44 178.88 109.15 178.55 108.04 177.86 107.17 177.17 106.27 176.27 105.82 175.1 105.82 173.93 105.82 173.03 106.27 172.34 107.17zM199.67 113.26L202.37 102.88 206.12 102.88 201.29 118 197.99 118 195.38 108.22 192.77 118 189.47 118 184.64 102.88 188.39 102.88 191.09 113.26 193.64 102.88 197.12 102.88 199.67 113.26z" transform="translate(51 172)"/>
    <path fill="#FFF" fill-rule="nonzero" d="M106.5625,106.5625 L106.5625,155 L48.4375,155 L48.4375,106.5625 L0,106.5625 L0,48.4375 L48.4375,48.4375 L48.4375,1.35713663e-12 L106.5625,1.35713663e-12 L106.5625,48.4375 L155,48.4375 L155,106.5625 L106.5625,106.5625 Z M58.4375,106.875 L58.4375,145 L96.5625,145 L96.5625,106.875 L58.4375,106.875 Z M10,58.4375 L10,96.5625 L48.125,96.5625 L48.125,58.4375 L10,58.4375 Z M58.4375,10 L58.4375,96.5625 L145,96.5625 L145,58.4375 L96.5625,58.4375 L96.5625,10 L58.4375,10 Z" transform="translate(595 123)"/>
  </g>
</svg>
