<svg xmlns="http://www.w3.org/2000/svg" width="155" height="155" viewBox="0 0 155 155">
  <path fill="#FFF" d="M106.5625,106.5625 L106.5625,155 L48.4375,155 L48.4375,106.5625 L0,106.5625 L0,48.4375 L48.4375,48.4375 L48.4375,1.35713663e-12 L106.5625,1.35713663e-12 L106.5625,48.4375 L155,48.4375 L155,106.5625 L106.5625,106.5625 Z M58.4375,106.875 L58.4375,145 L96.5625,145 L96.5625,106.875 L58.4375,106.875 Z M10,58.4375 L10,96.5625 L48.125,96.5625 L48.125,58.4375 L10,58.4375 Z M58.4375,10 L58.4375,96.5625 L145,96.5625 L145,58.4375 L96.5625,58.4375 L96.5625,10 L58.4375,10 Z"/>
</svg>
