<svg xmlns="http://www.w3.org/2000/svg" width="508" height="155" viewBox="0 0 508 155">
  <g fill="#FFF" fill-rule="evenodd">
    <path fill-rule="nonzero" d="M106.5625,106.5625 L106.5625,155 L48.4375,155 L48.4375,106.5625 L0,106.5625 L0,48.4375 L48.4375,48.4375 L48.4375,1.36424205e-12 L106.5625,1.36424205e-12 L106.5625,48.4375 L155,48.4375 L155,106.5625 L106.5625,106.5625 Z M58.4375,106.875 L58.4375,145 L96.5625,145 L96.5625,106.875 L58.4375,106.875 Z M10,58.4375 L10,96.5625 L48.125,96.5625 L48.125,58.4375 L10,58.4375 Z M58.4375,10 L58.4375,96.5625 L145,96.5625 L145,58.4375 L96.5625,58.4375 L96.5625,10 L58.4375,10 Z"/>
    <path d="M52.1503191 17.5334862L42.4791489 20.0079702C39.9167021 13.3268635 35.2051064 9.94506881 28.1790426 9.94506881 23.4674468 9.94506881 19.4997872 11.5947248 16.3587234 14.9765195 13.3003191 18.3583142 11.7297872 23.2247993 11.7297872 29.5759748 11.7297872 35.9271502 13.3003191 40.7936353 16.3587234 44.17543 19.4997872 47.5572248 23.4674468 49.2068807 28.1790426 49.2068807 35.2051064 49.2068807 39.9167021 45.825086 42.4791489 39.1439794L52.1503191 41.6184633C49.4225532 52.7536411 40.7432979 59.1048165 28.1790426 59.1048165 20.4917021 59.1048165 14.0442553 56.465367 8.75404255 51.2689507 3.46382979 46.0725344.818723404 38.8140482.818723404 29.5759748.818723404 20.3379014 3.46382979 13.0794151 8.75404255 7.88299885 14.0442553 2.68658257 20.4917021.0471330275 28.1790426.0471330275 40.7432979.0471330275 49.4225532 6.39830849 52.1503191 17.5334862zM63.9706383 53.0835722C60.1682979 49.0419151 58.2671277 43.8454989 58.2671277 37.659289 58.2671277 31.4730791 60.1682979 26.3591456 63.9706383 22.3174885 67.7729787 18.2758314 72.8978723 16.2137615 79.4279787 16.2137615 85.9580851 16.2137615 91.0829787 18.2758314 94.8853191 22.3174885 98.6876596 26.3591456 100.58883 31.4730791 100.58883 37.659289 100.58883 43.8454989 98.6876596 49.0419151 94.8853191 53.0835722 91.0829787 57.1252294 85.9580851 59.1048165 79.4279787 59.1048165 72.8978723 59.1048165 67.7729787 57.1252294 63.9706383 53.0835722zM71.8232979 28.668664C69.9221277 31.0606651 69.0128723 34.1125287 69.0128723 37.659289 69.0128723 41.2060493 69.9221277 44.2579128 71.8232979 46.7323968 73.7244681 49.1243979 76.2042553 50.3616399 79.4279787 50.3616399 82.6517021 50.3616399 85.1314894 49.1243979 87.0326596 46.7323968 88.9338298 44.2579128 89.8430851 41.2060493 89.8430851 37.659289 89.8430851 34.1125287 88.9338298 31.0606651 87.0326596 28.668664 85.1314894 26.19418 82.6517021 24.9569381 79.4279787 24.9569381 76.2042553 24.9569381 73.7244681 26.19418 71.8232979 28.668664zM147.622128 45.412672L155.061489 16.8736239 165.393936 16.8736239 152.085745 58.4449541 142.993191 58.4449541 135.801809 31.5555619 128.610426 58.4449541 119.517872 58.4449541 106.209681 16.8736239 116.542128 16.8736239 123.981489 45.412672 131.007553 16.8736239 140.596064 16.8736239 147.622128 45.412672zM176.718298 53.0835722C172.915957 49.0419151 171.014787 43.8454989 171.014787 37.659289 171.014787 31.4730791 172.915957 26.3591456 176.718298 22.3174885 180.520638 18.2758314 185.645532 16.2137615 192.175638 16.2137615 198.705745 16.2137615 203.830638 18.2758314 207.632979 22.3174885 211.435319 26.3591456 213.336489 31.4730791 213.336489 37.659289 213.336489 43.8454989 211.435319 49.0419151 207.632979 53.0835722 203.830638 57.1252294 198.705745 59.1048165 192.175638 59.1048165 185.645532 59.1048165 180.520638 57.1252294 176.718298 53.0835722zM184.570957 28.668664C182.669787 31.0606651 181.760532 34.1125287 181.760532 37.659289 181.760532 41.2060493 182.669787 44.2579128 184.570957 46.7323968 186.472128 49.1243979 188.951915 50.3616399 192.175638 50.3616399 195.399362 50.3616399 197.879149 49.1243979 199.780319 46.7323968 201.681489 44.2579128 202.590745 41.2060493 202.590745 37.659289 202.590745 34.1125287 201.681489 31.0606651 199.780319 28.668664 197.879149 26.19418 195.399362 24.9569381 192.175638 24.9569381 188.951915 24.9569381 186.472128 26.19418 184.570957 28.668664zM233.753404 43.6805333L233.753404 58.4449541 223.503617 58.4449541 223.503617 16.8736239 233.753404 16.8736239 233.753404 23.6372133C236.729149 18.9356938 241.192766 16.2137615 246.069681 16.2137615 247.640213 16.2137615 249.293404 16.4612099 251.111915 17.0385894L249.210745 26.5241112C247.970851 25.7817661 246.482979 25.3693521 244.912447 25.3693521 238.38234 25.3693521 233.753404 31.0606651 233.753404 43.6805333zM258.385957 58.4449541L258.385957.0471330275 268.635745.0471330275 268.635745 33.2052179 282.191915 16.8736239 294.83883 16.8736239 278.141596 36.009633 295.913404 58.4449541 283.349149 58.4449541 268.635745 38.8140482 268.635745 58.4449541 258.385957 58.4449541zM13.0680851 136.018062L2.32234043 136.018062 2.32234043 78.2801032 14.3906383 78.2801032 28.0294681 114.325086 41.6682979 78.2801032 53.7365957 78.2801032 53.7365957 136.018062 42.9908511 136.018062 42.9908511 100.385493 31.9144681 130.739163 24.1444681 130.739163 13.0680851 100.385493 13.0680851 136.018062zM104.158936 114.325086L104.158936 118.531709 75.4760638 118.531709C75.7240426 123.563159 79.3610638 127.934748 85.3125532 127.934748 89.5281915 127.934748 92.917234 125.790195 95.3970213 121.501089L103.662979 124.552953C100.108617 132.636267 93.8264894 136.677924 84.7339362 136.677924 70.4338298 136.677924 64.7303191 125.130333 64.7303191 115.232397 64.7303191 105.334461 70.4338298 93.7868693 84.7339362 93.7868693 91.3467021 93.7868693 96.7195745 96.5088016 99.6953191 100.715424 102.671064 104.757081 104.158936 109.623567 104.158936 114.325086zM84.7339362 102.530046C79.8570213 102.530046 76.4679787 106.076806 75.7240426 110.448394L93.6611702 110.448394C92.5039362 105.169495 89.5281915 102.530046 84.7339362 102.530046zM129.700745 93.7868693C133.751064 93.7868693 137.884043 95.8489392 139.785213 98.2409404L139.785213 77.6202408 150.035 77.6202408 150.035 136.018062 139.785213 136.018062 139.785213 131.728956C138.46266 134.120958 134.41234 136.677924 129.700745 136.677924 117.467128 136.677924 110.689043 128.347162 110.689043 115.232397 110.689043 102.117632 117.467128 93.7868693 129.700745 93.7868693zM124.162553 105.911841C122.344043 108.138876 121.434787 111.273222 121.434787 115.232397 121.434787 119.191571 122.344043 122.325917 124.162553 124.552953 125.981064 126.779989 128.295532 127.934748 131.105957 127.934748 133.916383 127.934748 136.230851 126.862471 137.966702 124.635436 139.785213 122.4084 140.694468 119.274054 140.694468 115.232397 140.694468 111.19074 139.785213 108.138876 137.966702 105.911841 136.230851 103.684805 133.916383 102.530046 131.105957 102.530046 128.295532 102.530046 125.981064 103.684805 124.162553 105.911841zM162.681915 87.1882454C160.119468 84.6312787 160.119468 80.3421732 162.681915 77.7852064 165.244362 75.2282397 169.54266 75.2282397 172.105106 77.7852064 174.667553 80.3421732 174.667553 84.6312787 172.105106 87.1882454 169.54266 89.7452122 165.244362 89.7452122 162.681915 87.1882454zM162.268617 136.018062L162.268617 94.4467317 172.518404 94.4467317 172.518404 136.018062 162.268617 136.018062zM211.781702 121.088675L220.956915 124.800401C217.733191 132.71875 211.451064 136.677924 202.027872 136.677924 195.497766 136.677924 190.538191 134.615854 186.98383 130.574197 183.429468 126.53254 181.693617 121.418607 181.693617 115.232397 181.693617 109.046187 183.429468 103.932253 186.98383 99.8905963 190.538191 95.8489392 195.497766 93.7868693 202.027872 93.7868693 211.451064 93.7868693 217.733191 97.7460436 220.956915 105.664392L211.781702 109.376118C209.549894 104.839564 206.243511 102.530046 202.027872 102.530046 195.745745 102.530046 192.439362 107.643979 192.439362 115.232397 192.439362 122.820814 195.745745 127.934748 202.027872 127.934748 206.243511 127.934748 209.549894 125.625229 211.781702 121.088675zM237.075532 107.314048L228.396277 105.334461C229.71883 98.405906 235.918298 93.7868693 244.266915 93.7868693 255.921915 93.7868693 261.790745 99.5606651 261.790745 111.19074L261.790745 136.018062 253.359468 136.018062 252.284894 130.739163C249.06117 134.698337 244.762872 136.677924 239.47266 136.677924 232.115957 136.677924 226.825745 132.058888 226.825745 124.058056 226.825745 115.809776 234.017128 110.448394 244.597553 110.448394L251.540957 110.448394 251.540957 108.633773C251.540957 104.592116 249.14383 102.530046 244.266915 102.530046 240.547234 102.530046 238.150106 104.097219 237.075532 107.314048zM237.571489 123.893091C237.571489 126.120126 239.142021 127.934748 241.869787 127.934748 244.432234 127.934748 246.664043 127.10992 248.565213 125.542747 250.549043 123.975573 251.540957 121.913503 251.540957 119.356537L251.540957 118.531709 244.680213 118.531709C239.968617 118.531709 237.571489 120.34633 237.571489 123.893091zM272.619149 136.018062L272.619149 77.6202408 282.868936 77.6202408 282.868936 136.018062 272.619149 136.018062z" transform="translate(212 9)"/>
  </g>
</svg>
