<svg xmlns="http://www.w3.org/2000/svg" width="1048" height="800" viewBox="0 0 1048 800">
  <g fill="none" fill-rule="evenodd">
    <rect width="1048" height="800" fill="#F4F4F4"/>
    <rect width="349" height="200" y="400" fill="#696773"/>
    <g fill="#FFF" transform="translate(76 470)">
      <path fill-rule="nonzero" d="M41.25,41.25 L41.25,60 L18.75,60 L18.75,41.25 L0,41.25 L0,18.75 L18.75,18.75 L18.75,1.36424205e-12 L41.25,1.36424205e-12 L41.25,18.75 L60,18.75 L60,41.25 L41.25,41.25 Z M22.6209677,41.3709677 L22.6209677,56.1290323 L37.3790323,56.1290323 L37.3790323,41.3709677 L22.6209677,41.3709677 Z M3.87096774,22.6209677 L3.87096774,37.3790323 L18.6290323,37.3790323 L18.6290323,22.6209677 L3.87096774,22.6209677 Z M22.6209677,3.87096774 L22.6209677,37.3790323 L56.1290323,37.3790323 L56.1290323,22.6209677 L37.3790323,22.6209677 L37.3790323,3.87096774 L22.6209677,3.87096774 Z"/>
      <path d="M20.1872203 6.78715596L16.4435415 7.74502072C15.4516266 5.15878588 13.6277831 3.84970405 10.9080165 3.84970405 9.08417296 3.84970405 7.54830474 4.48828056 6.33240906 5.79736239 5.14851064 7.10644421 4.5405628 8.99024489 4.5405628 11.4487644 4.5405628 13.907284 5.14851064 15.7910846 6.33240906 17.1001665 7.54830474 18.4092483 9.08417296 19.0478248 10.9080165 19.0478248 13.6277831 19.0478248 15.4516266 17.738743 16.4435415 15.1525081L20.1872203 16.1103729C19.1313109 20.4207643 15.7715992 22.8792838 10.9080165 22.8792838 7.93227179 22.8792838 5.43648593 21.8575614 3.38866163 19.8460454 1.34083734 17.8345294.316925189 15.0247928.316925189 11.4487644.316925189 7.87273602 1.34083734 5.06299941 3.38866163 3.05148343 5.43648593 1.03996745 7.93227179.0182450429 10.9080165.0182450429 15.7715992.0182450429 19.1313109 2.47676458 20.1872203 6.78715596zM24.7628277 20.5484796C23.290954 18.9839672 22.5550172 16.9724512 22.5550172 14.5777893 22.5550172 12.1831274 23.290954 10.2035402 24.7628277 8.63902782 26.2347014 7.07451539 28.2185312 6.27629476 30.7463143 6.27629476 33.2740975 6.27629476 35.2579272 7.07451539 36.729801 8.63902782 38.2016747 10.2035402 38.9376115 12.1831274 38.9376115 14.5777893 38.9376115 16.9724512 38.2016747 18.9839672 36.729801 20.5484796 35.2579272 22.112992 33.2740975 22.8792838 30.7463143 22.8792838 28.2185312 22.8792838 26.2347014 22.112992 24.7628277 20.5484796zM27.8025669 11.0975474C27.0666301 12.0234833 26.7146603 13.2048498 26.7146603 14.5777893 26.7146603 15.9507288 27.0666301 17.1320953 27.8025669 18.08996 28.5385038 19.015896 29.4984214 19.4948284 30.7463143 19.4948284 31.9942073 19.4948284 32.9541249 19.015896 33.6900618 18.08996 34.4259986 17.1320953 34.7779684 15.9507288 34.7779684 14.5777893 34.7779684 13.2048498 34.4259986 12.0234833 33.6900618 11.0975474 32.9541249 10.1396826 31.9942073 9.66075022 30.7463143 9.66075022 29.4984214 9.66075022 28.5385038 10.1396826 27.8025669 11.0975474zM57.1440494 17.5790988L60.0238023 6.53172536 64.0234592 6.53172536 58.8719012 22.6238532 55.3522032 22.6238532 52.568442 12.2150562 49.7846809 22.6238532 46.2649828 22.6238532 41.1134248 6.53172536 45.1130817 6.53172536 47.9928346 17.5790988 50.7126012 6.53172536 54.4242828 6.53172536 57.1440494 17.5790988zM68.407083 20.5484796C66.9352093 18.9839672 66.1992725 16.9724512 66.1992725 14.5777893 66.1992725 12.1831274 66.9352093 10.2035402 68.407083 8.63902782 69.8789568 7.07451539 71.8627865 6.27629476 74.3905697 6.27629476 76.9183528 6.27629476 78.9021826 7.07451539 80.3740563 8.63902782 81.84593 10.2035402 82.5818668 12.1831274 82.5818668 14.5777893 82.5818668 16.9724512 81.84593 18.9839672 80.3740563 20.5484796 78.9021826 22.112992 76.9183528 22.8792838 74.3905697 22.8792838 71.8627865 22.8792838 69.8789568 22.112992 68.407083 20.5484796zM71.4468222 11.0975474C70.7108854 12.0234833 70.3589156 13.2048498 70.3589156 14.5777893 70.3589156 15.9507288 70.7108854 17.1320953 71.4468222 18.08996 72.1827591 19.015896 73.1426767 19.4948284 74.3905697 19.4948284 75.6384626 19.4948284 76.5983802 19.015896 77.3343171 18.08996 78.0702539 17.1320953 78.4222237 15.9507288 78.4222237 14.5777893 78.4222237 13.2048498 78.0702539 12.0234833 77.3343171 11.0975474 76.5983802 10.1396826 75.6384626 9.66075022 74.3905697 9.66075022 73.1426767 9.66075022 72.1827591 10.1396826 71.4468222 11.0975474zM90.4851887 16.9085935L90.4851887 22.6238532 86.5175292 22.6238532 86.5175292 6.53172536 90.4851887 6.53172536 90.4851887 9.14988902C91.6370899 7.32994599 93.3649417 6.27629476 95.2527797 6.27629476 95.8607275 6.27629476 96.5006726 6.37208124 97.2046122 6.59558301L96.4686754 10.2673979C95.9887165 9.98003847 95.412766 9.82039435 94.8048181 9.82039435 92.277035 9.82039435 90.4851887 12.0234833 90.4851887 16.9085935zM100.020371 22.6238532L100.020371.0182450429 103.98803.0182450429 103.98803 12.8536327 109.23558 6.53172536 114.13116 6.53172536 107.667714 13.9392128 114.547124 22.6238532 109.683542 22.6238532 103.98803 15.0247928 103.98803 22.6238532 100.020371 22.6238532zM5.05861359 52.652153L.898970487 52.652153.898970487 30.3019754 5.57056966 30.3019754 10.8501167 44.254872 16.1296637 30.3019754 20.8012629 30.3019754 20.8012629 52.652153 16.6416198 52.652153 16.6416198 38.8589006 12.3539876 50.6087082 9.34624571 50.6087082 5.05861359 38.8589006 5.05861359 52.652153zM40.3195882 44.254872L40.3195882 45.8832421 29.2165408 45.8832421C29.3125326 47.8309004 30.7204118 49.5231281 33.0242141 49.5231281 34.6560741 49.5231281 35.9679616 48.6929787 36.9278792 47.0326798L40.1276047 48.2140463C38.7517227 51.3430712 36.3199314 52.9075836 32.8002334 52.9075836 27.2647083 52.9075836 25.0568977 48.4375481 25.0568977 44.6060891 25.0568977 40.7746301 27.2647083 36.3045946 32.8002334 36.3045946 35.3600137 36.3045946 37.4398353 37.3582458 38.5917364 38.9866159 39.7436376 40.5511283 40.3195882 42.434929 40.3195882 44.254872zM32.8002334 39.68905C30.9123953 39.68905 29.6005079 41.0619895 29.3125326 42.7542172L36.2559369 42.7542172C35.8079753 40.7107724 34.6560741 39.68905 32.8002334 39.68905zM50.2067399 36.3045946C51.7746054 36.3045946 53.3744681 37.1028152 54.1104049 38.0287511L54.1104049 30.0465448 58.0780645 30.0465448 58.0780645 52.652153 54.1104049 52.652153 54.1104049 50.9918541C53.5984489 51.91779 52.0305834 52.9075836 50.2067399 52.9075836 45.4711462 52.9075836 42.8473713 49.6827723 42.8473713 44.6060891 42.8473713 39.5294059 45.4711462 36.3045946 50.2067399 36.3045946zM48.0629238 40.9981318C47.3589842 41.8602101 47.0070144 43.0735055 47.0070144 44.6060891 47.0070144 46.1386727 47.3589842 47.351968 48.0629238 48.2140463 48.7668634 49.0761246 49.6627865 49.5231281 50.7506932 49.5231281 51.8385999 49.5231281 52.734523 49.1080534 53.4064653 48.2459751 54.1104049 47.3838969 54.4623747 46.1706015 54.4623747 44.6060891 54.4623747 43.0415766 54.1104049 41.8602101 53.4064653 40.9981318 52.734523 40.1360536 51.8385999 39.68905 50.7506932 39.68905 49.6627865 39.68905 48.7668634 40.1360536 48.0629238 40.9981318zM62.9736445 33.7502885C61.9817296 32.760495 61.9817296 31.1001961 62.9736445 30.1104025 63.9655594 29.1206089 65.6294166 29.1206089 66.6213315 30.1104025 67.6132464 31.1001961 67.6132464 32.760495 66.6213315 33.7502885 65.6294166 34.7400821 63.9655594 34.7400821 62.9736445 33.7502885zM62.8136582 52.652153L62.8136582 36.5600252 66.7813178 36.5600252 66.7813178 52.652153 62.8136582 52.652153zM81.9800137 46.8730357L85.531709 48.3098328C84.2838161 51.375 81.8520247 52.9075836 78.2043377 52.9075836 75.6765546 52.9075836 73.7567193 52.109363 72.3808373 50.5448505 71.0049554 48.9803381 70.333013 47.000751 70.333013 44.6060891 70.333013 42.2114272 71.0049554 40.23184 72.3808373 38.6673276 73.7567193 37.1028152 75.6765546 36.3045946 78.2043377 36.3045946 81.8520247 36.3045946 84.2838161 37.8371782 85.531709 40.9023454L81.9800137 42.3391425C81.1160879 40.5830571 79.8361977 39.68905 78.2043377 39.68905 75.7725463 39.68905 74.4926561 41.6686372 74.4926561 44.6060891 74.4926561 47.543541 75.7725463 49.5231281 78.2043377 49.5231281 79.8361977 49.5231281 81.1160879 48.629121 81.9800137 46.8730357zM91.7711736 41.5409219L88.4114619 40.7746301C88.923418 38.0926088 91.3232121 36.3045946 94.5549348 36.3045946 99.0665477 36.3045946 101.338353 38.5396123 101.338353 43.0415766L101.338353 52.652153 98.0746328 52.652153 97.6586685 50.6087082C96.4107756 52.1412918 94.7469183 52.9075836 92.699094 52.9075836 89.8513384 52.9075836 87.8035141 51.1195694 87.8035141 48.0224734 87.8035141 44.8295909 90.5872752 42.7542172 94.6829238 42.7542172L97.3706932 42.7542172 97.3706932 42.0517831C97.3706932 40.4872706 96.4427728 39.68905 94.5549348 39.68905 93.1150583 39.68905 92.187138 40.2956977 91.7711736 41.5409219zM91.9631572 47.9586157C91.9631572 48.820694 92.571105 49.5231281 93.6270144 49.5231281 94.6189293 49.5231281 95.4828552 49.2038399 96.218792 48.5971922 96.9867261 47.9905445 97.3706932 47.1923239 97.3706932 46.2025303L97.3706932 45.8832421 94.7149211 45.8832421C92.8910776 45.8832421 91.9631572 46.5856762 91.9631572 47.9586157zM105.529993 52.652153L105.529993 30.0465448 109.497653 30.0465448 109.497653 52.652153 105.529993 52.652153z" transform="translate(82.065 3.484)"/>
    </g>
    <rect width="350" height="400" x="349" y="200" fill="#F4F4F4"/>
    <path fill="#41426A" fill-rule="nonzero" d="M106.5625,106.5625 L106.5625,155 L48.4375,155 L48.4375,106.5625 L0,106.5625 L0,48.4375 L48.4375,48.4375 L48.4375,1.35713663e-12 L106.5625,1.35713663e-12 L106.5625,48.4375 L155,48.4375 L155,106.5625 L106.5625,106.5625 Z M58.4375,106.875 L58.4375,145 L96.5625,145 L96.5625,106.875 L58.4375,106.875 Z M10,58.4375 L10,96.5625 L48.125,96.5625 L48.125,58.4375 L10,58.4375 Z M58.4375,10 L58.4375,96.5625 L145,96.5625 L145,58.4375 L96.5625,58.4375 L96.5625,10 L58.4375,10 Z" transform="translate(447 323)"/>
    <rect width="350" height="200" x="349" fill="#41426A"/>
    <g fill="#FFF" transform="translate(425 70)">
      <path fill-rule="nonzero" d="M41.25,41.25 L41.25,60 L18.75,60 L18.75,41.25 L0,41.25 L0,18.75 L18.75,18.75 L18.75,1.36424205e-12 L41.25,1.36424205e-12 L41.25,18.75 L60,18.75 L60,41.25 L41.25,41.25 Z M22.6209677,41.3709677 L22.6209677,56.1290323 L37.3790323,56.1290323 L37.3790323,41.3709677 L22.6209677,41.3709677 Z M3.87096774,22.6209677 L3.87096774,37.3790323 L18.6290323,37.3790323 L18.6290323,22.6209677 L3.87096774,22.6209677 Z M22.6209677,3.87096774 L22.6209677,37.3790323 L56.1290323,37.3790323 L56.1290323,22.6209677 L37.3790323,22.6209677 L37.3790323,3.87096774 L22.6209677,3.87096774 Z"/>
      <path d="M20.1872203 6.78715596L16.4435415 7.74502072C15.4516266 5.15878588 13.6277831 3.84970405 10.9080165 3.84970405 9.08417296 3.84970405 7.54830474 4.48828056 6.33240906 5.79736239 5.14851064 7.10644421 4.5405628 8.99024489 4.5405628 11.4487644 4.5405628 13.907284 5.14851064 15.7910846 6.33240906 17.1001665 7.54830474 18.4092483 9.08417296 19.0478248 10.9080165 19.0478248 13.6277831 19.0478248 15.4516266 17.738743 16.4435415 15.1525081L20.1872203 16.1103729C19.1313109 20.4207643 15.7715992 22.8792838 10.9080165 22.8792838 7.93227179 22.8792838 5.43648593 21.8575614 3.38866163 19.8460454 1.34083734 17.8345294.316925189 15.0247928.316925189 11.4487644.316925189 7.87273602 1.34083734 5.06299941 3.38866163 3.05148343 5.43648593 1.03996745 7.93227179.0182450429 10.9080165.0182450429 15.7715992.0182450429 19.1313109 2.47676458 20.1872203 6.78715596zM24.7628277 20.5484796C23.290954 18.9839672 22.5550172 16.9724512 22.5550172 14.5777893 22.5550172 12.1831274 23.290954 10.2035402 24.7628277 8.63902782 26.2347014 7.07451539 28.2185312 6.27629476 30.7463143 6.27629476 33.2740975 6.27629476 35.2579272 7.07451539 36.729801 8.63902782 38.2016747 10.2035402 38.9376115 12.1831274 38.9376115 14.5777893 38.9376115 16.9724512 38.2016747 18.9839672 36.729801 20.5484796 35.2579272 22.112992 33.2740975 22.8792838 30.7463143 22.8792838 28.2185312 22.8792838 26.2347014 22.112992 24.7628277 20.5484796zM27.8025669 11.0975474C27.0666301 12.0234833 26.7146603 13.2048498 26.7146603 14.5777893 26.7146603 15.9507288 27.0666301 17.1320953 27.8025669 18.08996 28.5385038 19.015896 29.4984214 19.4948284 30.7463143 19.4948284 31.9942073 19.4948284 32.9541249 19.015896 33.6900618 18.08996 34.4259986 17.1320953 34.7779684 15.9507288 34.7779684 14.5777893 34.7779684 13.2048498 34.4259986 12.0234833 33.6900618 11.0975474 32.9541249 10.1396826 31.9942073 9.66075022 30.7463143 9.66075022 29.4984214 9.66075022 28.5385038 10.1396826 27.8025669 11.0975474zM57.1440494 17.5790988L60.0238023 6.53172536 64.0234592 6.53172536 58.8719012 22.6238532 55.3522032 22.6238532 52.568442 12.2150562 49.7846809 22.6238532 46.2649828 22.6238532 41.1134248 6.53172536 45.1130817 6.53172536 47.9928346 17.5790988 50.7126012 6.53172536 54.4242828 6.53172536 57.1440494 17.5790988zM68.407083 20.5484796C66.9352093 18.9839672 66.1992725 16.9724512 66.1992725 14.5777893 66.1992725 12.1831274 66.9352093 10.2035402 68.407083 8.63902782 69.8789568 7.07451539 71.8627865 6.27629476 74.3905697 6.27629476 76.9183528 6.27629476 78.9021826 7.07451539 80.3740563 8.63902782 81.84593 10.2035402 82.5818668 12.1831274 82.5818668 14.5777893 82.5818668 16.9724512 81.84593 18.9839672 80.3740563 20.5484796 78.9021826 22.112992 76.9183528 22.8792838 74.3905697 22.8792838 71.8627865 22.8792838 69.8789568 22.112992 68.407083 20.5484796zM71.4468222 11.0975474C70.7108854 12.0234833 70.3589156 13.2048498 70.3589156 14.5777893 70.3589156 15.9507288 70.7108854 17.1320953 71.4468222 18.08996 72.1827591 19.015896 73.1426767 19.4948284 74.3905697 19.4948284 75.6384626 19.4948284 76.5983802 19.015896 77.3343171 18.08996 78.0702539 17.1320953 78.4222237 15.9507288 78.4222237 14.5777893 78.4222237 13.2048498 78.0702539 12.0234833 77.3343171 11.0975474 76.5983802 10.1396826 75.6384626 9.66075022 74.3905697 9.66075022 73.1426767 9.66075022 72.1827591 10.1396826 71.4468222 11.0975474zM90.4851887 16.9085935L90.4851887 22.6238532 86.5175292 22.6238532 86.5175292 6.53172536 90.4851887 6.53172536 90.4851887 9.14988902C91.6370899 7.32994599 93.3649417 6.27629476 95.2527797 6.27629476 95.8607275 6.27629476 96.5006726 6.37208124 97.2046122 6.59558301L96.4686754 10.2673979C95.9887165 9.98003847 95.412766 9.82039435 94.8048181 9.82039435 92.277035 9.82039435 90.4851887 12.0234833 90.4851887 16.9085935zM100.020371 22.6238532L100.020371.0182450429 103.98803.0182450429 103.98803 12.8536327 109.23558 6.53172536 114.13116 6.53172536 107.667714 13.9392128 114.547124 22.6238532 109.683542 22.6238532 103.98803 15.0247928 103.98803 22.6238532 100.020371 22.6238532zM5.05861359 52.652153L.898970487 52.652153.898970487 30.3019754 5.57056966 30.3019754 10.8501167 44.254872 16.1296637 30.3019754 20.8012629 30.3019754 20.8012629 52.652153 16.6416198 52.652153 16.6416198 38.8589006 12.3539876 50.6087082 9.34624571 50.6087082 5.05861359 38.8589006 5.05861359 52.652153zM40.3195882 44.254872L40.3195882 45.8832421 29.2165408 45.8832421C29.3125326 47.8309004 30.7204118 49.5231281 33.0242141 49.5231281 34.6560741 49.5231281 35.9679616 48.6929787 36.9278792 47.0326798L40.1276047 48.2140463C38.7517227 51.3430712 36.3199314 52.9075836 32.8002334 52.9075836 27.2647083 52.9075836 25.0568977 48.4375481 25.0568977 44.6060891 25.0568977 40.7746301 27.2647083 36.3045946 32.8002334 36.3045946 35.3600137 36.3045946 37.4398353 37.3582458 38.5917364 38.9866159 39.7436376 40.5511283 40.3195882 42.434929 40.3195882 44.254872zM32.8002334 39.68905C30.9123953 39.68905 29.6005079 41.0619895 29.3125326 42.7542172L36.2559369 42.7542172C35.8079753 40.7107724 34.6560741 39.68905 32.8002334 39.68905zM50.2067399 36.3045946C51.7746054 36.3045946 53.3744681 37.1028152 54.1104049 38.0287511L54.1104049 30.0465448 58.0780645 30.0465448 58.0780645 52.652153 54.1104049 52.652153 54.1104049 50.9918541C53.5984489 51.91779 52.0305834 52.9075836 50.2067399 52.9075836 45.4711462 52.9075836 42.8473713 49.6827723 42.8473713 44.6060891 42.8473713 39.5294059 45.4711462 36.3045946 50.2067399 36.3045946zM48.0629238 40.9981318C47.3589842 41.8602101 47.0070144 43.0735055 47.0070144 44.6060891 47.0070144 46.1386727 47.3589842 47.351968 48.0629238 48.2140463 48.7668634 49.0761246 49.6627865 49.5231281 50.7506932 49.5231281 51.8385999 49.5231281 52.734523 49.1080534 53.4064653 48.2459751 54.1104049 47.3838969 54.4623747 46.1706015 54.4623747 44.6060891 54.4623747 43.0415766 54.1104049 41.8602101 53.4064653 40.9981318 52.734523 40.1360536 51.8385999 39.68905 50.7506932 39.68905 49.6627865 39.68905 48.7668634 40.1360536 48.0629238 40.9981318zM62.9736445 33.7502885C61.9817296 32.760495 61.9817296 31.1001961 62.9736445 30.1104025 63.9655594 29.1206089 65.6294166 29.1206089 66.6213315 30.1104025 67.6132464 31.1001961 67.6132464 32.760495 66.6213315 33.7502885 65.6294166 34.7400821 63.9655594 34.7400821 62.9736445 33.7502885zM62.8136582 52.652153L62.8136582 36.5600252 66.7813178 36.5600252 66.7813178 52.652153 62.8136582 52.652153zM81.9800137 46.8730357L85.531709 48.3098328C84.2838161 51.375 81.8520247 52.9075836 78.2043377 52.9075836 75.6765546 52.9075836 73.7567193 52.109363 72.3808373 50.5448505 71.0049554 48.9803381 70.333013 47.000751 70.333013 44.6060891 70.333013 42.2114272 71.0049554 40.23184 72.3808373 38.6673276 73.7567193 37.1028152 75.6765546 36.3045946 78.2043377 36.3045946 81.8520247 36.3045946 84.2838161 37.8371782 85.531709 40.9023454L81.9800137 42.3391425C81.1160879 40.5830571 79.8361977 39.68905 78.2043377 39.68905 75.7725463 39.68905 74.4926561 41.6686372 74.4926561 44.6060891 74.4926561 47.543541 75.7725463 49.5231281 78.2043377 49.5231281 79.8361977 49.5231281 81.1160879 48.629121 81.9800137 46.8730357zM91.7711736 41.5409219L88.4114619 40.7746301C88.923418 38.0926088 91.3232121 36.3045946 94.5549348 36.3045946 99.0665477 36.3045946 101.338353 38.5396123 101.338353 43.0415766L101.338353 52.652153 98.0746328 52.652153 97.6586685 50.6087082C96.4107756 52.1412918 94.7469183 52.9075836 92.699094 52.9075836 89.8513384 52.9075836 87.8035141 51.1195694 87.8035141 48.0224734 87.8035141 44.8295909 90.5872752 42.7542172 94.6829238 42.7542172L97.3706932 42.7542172 97.3706932 42.0517831C97.3706932 40.4872706 96.4427728 39.68905 94.5549348 39.68905 93.1150583 39.68905 92.187138 40.2956977 91.7711736 41.5409219zM91.9631572 47.9586157C91.9631572 48.820694 92.571105 49.5231281 93.6270144 49.5231281 94.6189293 49.5231281 95.4828552 49.2038399 96.218792 48.5971922 96.9867261 47.9905445 97.3706932 47.1923239 97.3706932 46.2025303L97.3706932 45.8832421 94.7149211 45.8832421C92.8910776 45.8832421 91.9631572 46.5856762 91.9631572 47.9586157zM105.529993 52.652153L105.529993 30.0465448 109.497653 30.0465448 109.497653 52.652153 105.529993 52.652153z" transform="translate(82.065 3.484)"/>
    </g>
    <rect width="350" height="200" x="349" y="600" fill="#329374"/>
    <g fill="#FFF" transform="translate(425.5 670)">
      <path fill-rule="nonzero" d="M41.25,41.25 L41.25,60 L18.75,60 L18.75,41.25 L0,41.25 L0,18.75 L18.75,18.75 L18.75,1.36424205e-12 L41.25,1.36424205e-12 L41.25,18.75 L60,18.75 L60,41.25 L41.25,41.25 Z M22.6209677,41.3709677 L22.6209677,56.1290323 L37.3790323,56.1290323 L37.3790323,41.3709677 L22.6209677,41.3709677 Z M3.87096774,22.6209677 L3.87096774,37.3790323 L18.6290323,37.3790323 L18.6290323,22.6209677 L3.87096774,22.6209677 Z M22.6209677,3.87096774 L22.6209677,37.3790323 L56.1290323,37.3790323 L56.1290323,22.6209677 L37.3790323,22.6209677 L37.3790323,3.87096774 L22.6209677,3.87096774 Z"/>
      <path d="M20.1872203 6.78715596L16.4435415 7.74502072C15.4516266 5.15878588 13.6277831 3.84970405 10.9080165 3.84970405 9.08417296 3.84970405 7.54830474 4.48828056 6.33240906 5.79736239 5.14851064 7.10644421 4.5405628 8.99024489 4.5405628 11.4487644 4.5405628 13.907284 5.14851064 15.7910846 6.33240906 17.1001665 7.54830474 18.4092483 9.08417296 19.0478248 10.9080165 19.0478248 13.6277831 19.0478248 15.4516266 17.738743 16.4435415 15.1525081L20.1872203 16.1103729C19.1313109 20.4207643 15.7715992 22.8792838 10.9080165 22.8792838 7.93227179 22.8792838 5.43648593 21.8575614 3.38866163 19.8460454 1.34083734 17.8345294.316925189 15.0247928.316925189 11.4487644.316925189 7.87273602 1.34083734 5.06299941 3.38866163 3.05148343 5.43648593 1.03996745 7.93227179.0182450429 10.9080165.0182450429 15.7715992.0182450429 19.1313109 2.47676458 20.1872203 6.78715596zM24.7628277 20.5484796C23.290954 18.9839672 22.5550172 16.9724512 22.5550172 14.5777893 22.5550172 12.1831274 23.290954 10.2035402 24.7628277 8.63902782 26.2347014 7.07451539 28.2185312 6.27629476 30.7463143 6.27629476 33.2740975 6.27629476 35.2579272 7.07451539 36.729801 8.63902782 38.2016747 10.2035402 38.9376115 12.1831274 38.9376115 14.5777893 38.9376115 16.9724512 38.2016747 18.9839672 36.729801 20.5484796 35.2579272 22.112992 33.2740975 22.8792838 30.7463143 22.8792838 28.2185312 22.8792838 26.2347014 22.112992 24.7628277 20.5484796zM27.8025669 11.0975474C27.0666301 12.0234833 26.7146603 13.2048498 26.7146603 14.5777893 26.7146603 15.9507288 27.0666301 17.1320953 27.8025669 18.08996 28.5385038 19.015896 29.4984214 19.4948284 30.7463143 19.4948284 31.9942073 19.4948284 32.9541249 19.015896 33.6900618 18.08996 34.4259986 17.1320953 34.7779684 15.9507288 34.7779684 14.5777893 34.7779684 13.2048498 34.4259986 12.0234833 33.6900618 11.0975474 32.9541249 10.1396826 31.9942073 9.66075022 30.7463143 9.66075022 29.4984214 9.66075022 28.5385038 10.1396826 27.8025669 11.0975474zM57.1440494 17.5790988L60.0238023 6.53172536 64.0234592 6.53172536 58.8719012 22.6238532 55.3522032 22.6238532 52.568442 12.2150562 49.7846809 22.6238532 46.2649828 22.6238532 41.1134248 6.53172536 45.1130817 6.53172536 47.9928346 17.5790988 50.7126012 6.53172536 54.4242828 6.53172536 57.1440494 17.5790988zM68.407083 20.5484796C66.9352093 18.9839672 66.1992725 16.9724512 66.1992725 14.5777893 66.1992725 12.1831274 66.9352093 10.2035402 68.407083 8.63902782 69.8789568 7.07451539 71.8627865 6.27629476 74.3905697 6.27629476 76.9183528 6.27629476 78.9021826 7.07451539 80.3740563 8.63902782 81.84593 10.2035402 82.5818668 12.1831274 82.5818668 14.5777893 82.5818668 16.9724512 81.84593 18.9839672 80.3740563 20.5484796 78.9021826 22.112992 76.9183528 22.8792838 74.3905697 22.8792838 71.8627865 22.8792838 69.8789568 22.112992 68.407083 20.5484796zM71.4468222 11.0975474C70.7108854 12.0234833 70.3589156 13.2048498 70.3589156 14.5777893 70.3589156 15.9507288 70.7108854 17.1320953 71.4468222 18.08996 72.1827591 19.015896 73.1426767 19.4948284 74.3905697 19.4948284 75.6384626 19.4948284 76.5983802 19.015896 77.3343171 18.08996 78.0702539 17.1320953 78.4222237 15.9507288 78.4222237 14.5777893 78.4222237 13.2048498 78.0702539 12.0234833 77.3343171 11.0975474 76.5983802 10.1396826 75.6384626 9.66075022 74.3905697 9.66075022 73.1426767 9.66075022 72.1827591 10.1396826 71.4468222 11.0975474zM90.4851887 16.9085935L90.4851887 22.6238532 86.5175292 22.6238532 86.5175292 6.53172536 90.4851887 6.53172536 90.4851887 9.14988902C91.6370899 7.32994599 93.3649417 6.27629476 95.2527797 6.27629476 95.8607275 6.27629476 96.5006726 6.37208124 97.2046122 6.59558301L96.4686754 10.2673979C95.9887165 9.98003847 95.412766 9.82039435 94.8048181 9.82039435 92.277035 9.82039435 90.4851887 12.0234833 90.4851887 16.9085935zM100.020371 22.6238532L100.020371.0182450429 103.98803.0182450429 103.98803 12.8536327 109.23558 6.53172536 114.13116 6.53172536 107.667714 13.9392128 114.547124 22.6238532 109.683542 22.6238532 103.98803 15.0247928 103.98803 22.6238532 100.020371 22.6238532zM5.05861359 52.652153L.898970487 52.652153.898970487 30.3019754 5.57056966 30.3019754 10.8501167 44.254872 16.1296637 30.3019754 20.8012629 30.3019754 20.8012629 52.652153 16.6416198 52.652153 16.6416198 38.8589006 12.3539876 50.6087082 9.34624571 50.6087082 5.05861359 38.8589006 5.05861359 52.652153zM40.3195882 44.254872L40.3195882 45.8832421 29.2165408 45.8832421C29.3125326 47.8309004 30.7204118 49.5231281 33.0242141 49.5231281 34.6560741 49.5231281 35.9679616 48.6929787 36.9278792 47.0326798L40.1276047 48.2140463C38.7517227 51.3430712 36.3199314 52.9075836 32.8002334 52.9075836 27.2647083 52.9075836 25.0568977 48.4375481 25.0568977 44.6060891 25.0568977 40.7746301 27.2647083 36.3045946 32.8002334 36.3045946 35.3600137 36.3045946 37.4398353 37.3582458 38.5917364 38.9866159 39.7436376 40.5511283 40.3195882 42.434929 40.3195882 44.254872zM32.8002334 39.68905C30.9123953 39.68905 29.6005079 41.0619895 29.3125326 42.7542172L36.2559369 42.7542172C35.8079753 40.7107724 34.6560741 39.68905 32.8002334 39.68905zM50.2067399 36.3045946C51.7746054 36.3045946 53.3744681 37.1028152 54.1104049 38.0287511L54.1104049 30.0465448 58.0780645 30.0465448 58.0780645 52.652153 54.1104049 52.652153 54.1104049 50.9918541C53.5984489 51.91779 52.0305834 52.9075836 50.2067399 52.9075836 45.4711462 52.9075836 42.8473713 49.6827723 42.8473713 44.6060891 42.8473713 39.5294059 45.4711462 36.3045946 50.2067399 36.3045946zM48.0629238 40.9981318C47.3589842 41.8602101 47.0070144 43.0735055 47.0070144 44.6060891 47.0070144 46.1386727 47.3589842 47.351968 48.0629238 48.2140463 48.7668634 49.0761246 49.6627865 49.5231281 50.7506932 49.5231281 51.8385999 49.5231281 52.734523 49.1080534 53.4064653 48.2459751 54.1104049 47.3838969 54.4623747 46.1706015 54.4623747 44.6060891 54.4623747 43.0415766 54.1104049 41.8602101 53.4064653 40.9981318 52.734523 40.1360536 51.8385999 39.68905 50.7506932 39.68905 49.6627865 39.68905 48.7668634 40.1360536 48.0629238 40.9981318zM62.9736445 33.7502885C61.9817296 32.760495 61.9817296 31.1001961 62.9736445 30.1104025 63.9655594 29.1206089 65.6294166 29.1206089 66.6213315 30.1104025 67.6132464 31.1001961 67.6132464 32.760495 66.6213315 33.7502885 65.6294166 34.7400821 63.9655594 34.7400821 62.9736445 33.7502885zM62.8136582 52.652153L62.8136582 36.5600252 66.7813178 36.5600252 66.7813178 52.652153 62.8136582 52.652153zM81.9800137 46.8730357L85.531709 48.3098328C84.2838161 51.375 81.8520247 52.9075836 78.2043377 52.9075836 75.6765546 52.9075836 73.7567193 52.109363 72.3808373 50.5448505 71.0049554 48.9803381 70.333013 47.000751 70.333013 44.6060891 70.333013 42.2114272 71.0049554 40.23184 72.3808373 38.6673276 73.7567193 37.1028152 75.6765546 36.3045946 78.2043377 36.3045946 81.8520247 36.3045946 84.2838161 37.8371782 85.531709 40.9023454L81.9800137 42.3391425C81.1160879 40.5830571 79.8361977 39.68905 78.2043377 39.68905 75.7725463 39.68905 74.4926561 41.6686372 74.4926561 44.6060891 74.4926561 47.543541 75.7725463 49.5231281 78.2043377 49.5231281 79.8361977 49.5231281 81.1160879 48.629121 81.9800137 46.8730357zM91.7711736 41.5409219L88.4114619 40.7746301C88.923418 38.0926088 91.3232121 36.3045946 94.5549348 36.3045946 99.0665477 36.3045946 101.338353 38.5396123 101.338353 43.0415766L101.338353 52.652153 98.0746328 52.652153 97.6586685 50.6087082C96.4107756 52.1412918 94.7469183 52.9075836 92.699094 52.9075836 89.8513384 52.9075836 87.8035141 51.1195694 87.8035141 48.0224734 87.8035141 44.8295909 90.5872752 42.7542172 94.6829238 42.7542172L97.3706932 42.7542172 97.3706932 42.0517831C97.3706932 40.4872706 96.4427728 39.68905 94.5549348 39.68905 93.1150583 39.68905 92.187138 40.2956977 91.7711736 41.5409219zM91.9631572 47.9586157C91.9631572 48.820694 92.571105 49.5231281 93.6270144 49.5231281 94.6189293 49.5231281 95.4828552 49.2038399 96.218792 48.5971922 96.9867261 47.9905445 97.3706932 47.1923239 97.3706932 46.2025303L97.3706932 45.8832421 94.7149211 45.8832421C92.8910776 45.8832421 91.9631572 46.5856762 91.9631572 47.9586157zM105.529993 52.652153L105.529993 30.0465448 109.497653 30.0465448 109.497653 52.652153 105.529993 52.652153z" transform="translate(82.065 3.484)"/>
    </g>
    <rect width="349" height="200" x="699" fill="#FCC6C2"/>
    <rect width="349" height="200" y="200" fill="#F4F4F4"/>
    <g fill="#2B2B2C" transform="translate(775 70)">
      <path fill-rule="nonzero" d="M41.25,41.25 L41.25,60 L18.75,60 L18.75,41.25 L0,41.25 L0,18.75 L18.75,18.75 L18.75,1.36424205e-12 L41.25,1.36424205e-12 L41.25,18.75 L60,18.75 L60,41.25 L41.25,41.25 Z M22.6209677,41.3709677 L22.6209677,56.1290323 L37.3790323,56.1290323 L37.3790323,41.3709677 L22.6209677,41.3709677 Z M3.87096774,22.6209677 L3.87096774,37.3790323 L18.6290323,37.3790323 L18.6290323,22.6209677 L3.87096774,22.6209677 Z M22.6209677,3.87096774 L22.6209677,37.3790323 L56.1290323,37.3790323 L56.1290323,22.6209677 L37.3790323,22.6209677 L37.3790323,3.87096774 L22.6209677,3.87096774 Z"/>
      <path d="M20.1872203 6.78715596L16.4435415 7.74502072C15.4516266 5.15878588 13.6277831 3.84970405 10.9080165 3.84970405 9.08417296 3.84970405 7.54830474 4.48828056 6.33240906 5.79736239 5.14851064 7.10644421 4.5405628 8.99024489 4.5405628 11.4487644 4.5405628 13.907284 5.14851064 15.7910846 6.33240906 17.1001665 7.54830474 18.4092483 9.08417296 19.0478248 10.9080165 19.0478248 13.6277831 19.0478248 15.4516266 17.738743 16.4435415 15.1525081L20.1872203 16.1103729C19.1313109 20.4207643 15.7715992 22.8792838 10.9080165 22.8792838 7.93227179 22.8792838 5.43648593 21.8575614 3.38866163 19.8460454 1.34083734 17.8345294.316925189 15.0247928.316925189 11.4487644.316925189 7.87273602 1.34083734 5.06299941 3.38866163 3.05148343 5.43648593 1.03996745 7.93227179.0182450429 10.9080165.0182450429 15.7715992.0182450429 19.1313109 2.47676458 20.1872203 6.78715596zM24.7628277 20.5484796C23.290954 18.9839672 22.5550172 16.9724512 22.5550172 14.5777893 22.5550172 12.1831274 23.290954 10.2035402 24.7628277 8.63902782 26.2347014 7.07451539 28.2185312 6.27629476 30.7463143 6.27629476 33.2740975 6.27629476 35.2579272 7.07451539 36.729801 8.63902782 38.2016747 10.2035402 38.9376115 12.1831274 38.9376115 14.5777893 38.9376115 16.9724512 38.2016747 18.9839672 36.729801 20.5484796 35.2579272 22.112992 33.2740975 22.8792838 30.7463143 22.8792838 28.2185312 22.8792838 26.2347014 22.112992 24.7628277 20.5484796zM27.8025669 11.0975474C27.0666301 12.0234833 26.7146603 13.2048498 26.7146603 14.5777893 26.7146603 15.9507288 27.0666301 17.1320953 27.8025669 18.08996 28.5385038 19.015896 29.4984214 19.4948284 30.7463143 19.4948284 31.9942073 19.4948284 32.9541249 19.015896 33.6900618 18.08996 34.4259986 17.1320953 34.7779684 15.9507288 34.7779684 14.5777893 34.7779684 13.2048498 34.4259986 12.0234833 33.6900618 11.0975474 32.9541249 10.1396826 31.9942073 9.66075022 30.7463143 9.66075022 29.4984214 9.66075022 28.5385038 10.1396826 27.8025669 11.0975474zM57.1440494 17.5790988L60.0238023 6.53172536 64.0234592 6.53172536 58.8719012 22.6238532 55.3522032 22.6238532 52.568442 12.2150562 49.7846809 22.6238532 46.2649828 22.6238532 41.1134248 6.53172536 45.1130817 6.53172536 47.9928346 17.5790988 50.7126012 6.53172536 54.4242828 6.53172536 57.1440494 17.5790988zM68.407083 20.5484796C66.9352093 18.9839672 66.1992725 16.9724512 66.1992725 14.5777893 66.1992725 12.1831274 66.9352093 10.2035402 68.407083 8.63902782 69.8789568 7.07451539 71.8627865 6.27629476 74.3905697 6.27629476 76.9183528 6.27629476 78.9021826 7.07451539 80.3740563 8.63902782 81.84593 10.2035402 82.5818668 12.1831274 82.5818668 14.5777893 82.5818668 16.9724512 81.84593 18.9839672 80.3740563 20.5484796 78.9021826 22.112992 76.9183528 22.8792838 74.3905697 22.8792838 71.8627865 22.8792838 69.8789568 22.112992 68.407083 20.5484796zM71.4468222 11.0975474C70.7108854 12.0234833 70.3589156 13.2048498 70.3589156 14.5777893 70.3589156 15.9507288 70.7108854 17.1320953 71.4468222 18.08996 72.1827591 19.015896 73.1426767 19.4948284 74.3905697 19.4948284 75.6384626 19.4948284 76.5983802 19.015896 77.3343171 18.08996 78.0702539 17.1320953 78.4222237 15.9507288 78.4222237 14.5777893 78.4222237 13.2048498 78.0702539 12.0234833 77.3343171 11.0975474 76.5983802 10.1396826 75.6384626 9.66075022 74.3905697 9.66075022 73.1426767 9.66075022 72.1827591 10.1396826 71.4468222 11.0975474zM90.4851887 16.9085935L90.4851887 22.6238532 86.5175292 22.6238532 86.5175292 6.53172536 90.4851887 6.53172536 90.4851887 9.14988902C91.6370899 7.32994599 93.3649417 6.27629476 95.2527797 6.27629476 95.8607275 6.27629476 96.5006726 6.37208124 97.2046122 6.59558301L96.4686754 10.2673979C95.9887165 9.98003847 95.412766 9.82039435 94.8048181 9.82039435 92.277035 9.82039435 90.4851887 12.0234833 90.4851887 16.9085935zM100.020371 22.6238532L100.020371.0182450429 103.98803.0182450429 103.98803 12.8536327 109.23558 6.53172536 114.13116 6.53172536 107.667714 13.9392128 114.547124 22.6238532 109.683542 22.6238532 103.98803 15.0247928 103.98803 22.6238532 100.020371 22.6238532zM5.05861359 52.652153L.898970487 52.652153.898970487 30.3019754 5.57056966 30.3019754 10.8501167 44.254872 16.1296637 30.3019754 20.8012629 30.3019754 20.8012629 52.652153 16.6416198 52.652153 16.6416198 38.8589006 12.3539876 50.6087082 9.34624571 50.6087082 5.05861359 38.8589006 5.05861359 52.652153zM40.3195882 44.254872L40.3195882 45.8832421 29.2165408 45.8832421C29.3125326 47.8309004 30.7204118 49.5231281 33.0242141 49.5231281 34.6560741 49.5231281 35.9679616 48.6929787 36.9278792 47.0326798L40.1276047 48.2140463C38.7517227 51.3430712 36.3199314 52.9075836 32.8002334 52.9075836 27.2647083 52.9075836 25.0568977 48.4375481 25.0568977 44.6060891 25.0568977 40.7746301 27.2647083 36.3045946 32.8002334 36.3045946 35.3600137 36.3045946 37.4398353 37.3582458 38.5917364 38.9866159 39.7436376 40.5511283 40.3195882 42.434929 40.3195882 44.254872zM32.8002334 39.68905C30.9123953 39.68905 29.6005079 41.0619895 29.3125326 42.7542172L36.2559369 42.7542172C35.8079753 40.7107724 34.6560741 39.68905 32.8002334 39.68905zM50.2067399 36.3045946C51.7746054 36.3045946 53.3744681 37.1028152 54.1104049 38.0287511L54.1104049 30.0465448 58.0780645 30.0465448 58.0780645 52.652153 54.1104049 52.652153 54.1104049 50.9918541C53.5984489 51.91779 52.0305834 52.9075836 50.2067399 52.9075836 45.4711462 52.9075836 42.8473713 49.6827723 42.8473713 44.6060891 42.8473713 39.5294059 45.4711462 36.3045946 50.2067399 36.3045946zM48.0629238 40.9981318C47.3589842 41.8602101 47.0070144 43.0735055 47.0070144 44.6060891 47.0070144 46.1386727 47.3589842 47.351968 48.0629238 48.2140463 48.7668634 49.0761246 49.6627865 49.5231281 50.7506932 49.5231281 51.8385999 49.5231281 52.734523 49.1080534 53.4064653 48.2459751 54.1104049 47.3838969 54.4623747 46.1706015 54.4623747 44.6060891 54.4623747 43.0415766 54.1104049 41.8602101 53.4064653 40.9981318 52.734523 40.1360536 51.8385999 39.68905 50.7506932 39.68905 49.6627865 39.68905 48.7668634 40.1360536 48.0629238 40.9981318zM62.9736445 33.7502885C61.9817296 32.760495 61.9817296 31.1001961 62.9736445 30.1104025 63.9655594 29.1206089 65.6294166 29.1206089 66.6213315 30.1104025 67.6132464 31.1001961 67.6132464 32.760495 66.6213315 33.7502885 65.6294166 34.7400821 63.9655594 34.7400821 62.9736445 33.7502885zM62.8136582 52.652153L62.8136582 36.5600252 66.7813178 36.5600252 66.7813178 52.652153 62.8136582 52.652153zM81.9800137 46.8730357L85.531709 48.3098328C84.2838161 51.375 81.8520247 52.9075836 78.2043377 52.9075836 75.6765546 52.9075836 73.7567193 52.109363 72.3808373 50.5448505 71.0049554 48.9803381 70.333013 47.000751 70.333013 44.6060891 70.333013 42.2114272 71.0049554 40.23184 72.3808373 38.6673276 73.7567193 37.1028152 75.6765546 36.3045946 78.2043377 36.3045946 81.8520247 36.3045946 84.2838161 37.8371782 85.531709 40.9023454L81.9800137 42.3391425C81.1160879 40.5830571 79.8361977 39.68905 78.2043377 39.68905 75.7725463 39.68905 74.4926561 41.6686372 74.4926561 44.6060891 74.4926561 47.543541 75.7725463 49.5231281 78.2043377 49.5231281 79.8361977 49.5231281 81.1160879 48.629121 81.9800137 46.8730357zM91.7711736 41.5409219L88.4114619 40.7746301C88.923418 38.0926088 91.3232121 36.3045946 94.5549348 36.3045946 99.0665477 36.3045946 101.338353 38.5396123 101.338353 43.0415766L101.338353 52.652153 98.0746328 52.652153 97.6586685 50.6087082C96.4107756 52.1412918 94.7469183 52.9075836 92.699094 52.9075836 89.8513384 52.9075836 87.8035141 51.1195694 87.8035141 48.0224734 87.8035141 44.8295909 90.5872752 42.7542172 94.6829238 42.7542172L97.3706932 42.7542172 97.3706932 42.0517831C97.3706932 40.4872706 96.4427728 39.68905 94.5549348 39.68905 93.1150583 39.68905 92.187138 40.2956977 91.7711736 41.5409219zM91.9631572 47.9586157C91.9631572 48.820694 92.571105 49.5231281 93.6270144 49.5231281 94.6189293 49.5231281 95.4828552 49.2038399 96.218792 48.5971922 96.9867261 47.9905445 97.3706932 47.1923239 97.3706932 46.2025303L97.3706932 45.8832421 94.7149211 45.8832421C92.8910776 45.8832421 91.9631572 46.5856762 91.9631572 47.9586157zM105.529993 52.652153L105.529993 30.0465448 109.497653 30.0465448 109.497653 52.652153 105.529993 52.652153z" transform="translate(82.065 3.484)"/>
    </g>
    <g fill="#41426A" transform="translate(76 270)">
      <path fill-rule="nonzero" d="M41.25,41.25 L41.25,60 L18.75,60 L18.75,41.25 L0,41.25 L0,18.75 L18.75,18.75 L18.75,1.36424205e-12 L41.25,1.36424205e-12 L41.25,18.75 L60,18.75 L60,41.25 L41.25,41.25 Z M22.6209677,41.3709677 L22.6209677,56.1290323 L37.3790323,56.1290323 L37.3790323,41.3709677 L22.6209677,41.3709677 Z M3.87096774,22.6209677 L3.87096774,37.3790323 L18.6290323,37.3790323 L18.6290323,22.6209677 L3.87096774,22.6209677 Z M22.6209677,3.87096774 L22.6209677,37.3790323 L56.1290323,37.3790323 L56.1290323,22.6209677 L37.3790323,22.6209677 L37.3790323,3.87096774 L22.6209677,3.87096774 Z"/>
      <path d="M20.1872203 6.78715596L16.4435415 7.74502072C15.4516266 5.15878588 13.6277831 3.84970405 10.9080165 3.84970405 9.08417296 3.84970405 7.54830474 4.48828056 6.33240906 5.79736239 5.14851064 7.10644421 4.5405628 8.99024489 4.5405628 11.4487644 4.5405628 13.907284 5.14851064 15.7910846 6.33240906 17.1001665 7.54830474 18.4092483 9.08417296 19.0478248 10.9080165 19.0478248 13.6277831 19.0478248 15.4516266 17.738743 16.4435415 15.1525081L20.1872203 16.1103729C19.1313109 20.4207643 15.7715992 22.8792838 10.9080165 22.8792838 7.93227179 22.8792838 5.43648593 21.8575614 3.38866163 19.8460454 1.34083734 17.8345294.316925189 15.0247928.316925189 11.4487644.316925189 7.87273602 1.34083734 5.06299941 3.38866163 3.05148343 5.43648593 1.03996745 7.93227179.0182450429 10.9080165.0182450429 15.7715992.0182450429 19.1313109 2.47676458 20.1872203 6.78715596zM24.7628277 20.5484796C23.290954 18.9839672 22.5550172 16.9724512 22.5550172 14.5777893 22.5550172 12.1831274 23.290954 10.2035402 24.7628277 8.63902782 26.2347014 7.07451539 28.2185312 6.27629476 30.7463143 6.27629476 33.2740975 6.27629476 35.2579272 7.07451539 36.729801 8.63902782 38.2016747 10.2035402 38.9376115 12.1831274 38.9376115 14.5777893 38.9376115 16.9724512 38.2016747 18.9839672 36.729801 20.5484796 35.2579272 22.112992 33.2740975 22.8792838 30.7463143 22.8792838 28.2185312 22.8792838 26.2347014 22.112992 24.7628277 20.5484796zM27.8025669 11.0975474C27.0666301 12.0234833 26.7146603 13.2048498 26.7146603 14.5777893 26.7146603 15.9507288 27.0666301 17.1320953 27.8025669 18.08996 28.5385038 19.015896 29.4984214 19.4948284 30.7463143 19.4948284 31.9942073 19.4948284 32.9541249 19.015896 33.6900618 18.08996 34.4259986 17.1320953 34.7779684 15.9507288 34.7779684 14.5777893 34.7779684 13.2048498 34.4259986 12.0234833 33.6900618 11.0975474 32.9541249 10.1396826 31.9942073 9.66075022 30.7463143 9.66075022 29.4984214 9.66075022 28.5385038 10.1396826 27.8025669 11.0975474zM57.1440494 17.5790988L60.0238023 6.53172536 64.0234592 6.53172536 58.8719012 22.6238532 55.3522032 22.6238532 52.568442 12.2150562 49.7846809 22.6238532 46.2649828 22.6238532 41.1134248 6.53172536 45.1130817 6.53172536 47.9928346 17.5790988 50.7126012 6.53172536 54.4242828 6.53172536 57.1440494 17.5790988zM68.407083 20.5484796C66.9352093 18.9839672 66.1992725 16.9724512 66.1992725 14.5777893 66.1992725 12.1831274 66.9352093 10.2035402 68.407083 8.63902782 69.8789568 7.07451539 71.8627865 6.27629476 74.3905697 6.27629476 76.9183528 6.27629476 78.9021826 7.07451539 80.3740563 8.63902782 81.84593 10.2035402 82.5818668 12.1831274 82.5818668 14.5777893 82.5818668 16.9724512 81.84593 18.9839672 80.3740563 20.5484796 78.9021826 22.112992 76.9183528 22.8792838 74.3905697 22.8792838 71.8627865 22.8792838 69.8789568 22.112992 68.407083 20.5484796zM71.4468222 11.0975474C70.7108854 12.0234833 70.3589156 13.2048498 70.3589156 14.5777893 70.3589156 15.9507288 70.7108854 17.1320953 71.4468222 18.08996 72.1827591 19.015896 73.1426767 19.4948284 74.3905697 19.4948284 75.6384626 19.4948284 76.5983802 19.015896 77.3343171 18.08996 78.0702539 17.1320953 78.4222237 15.9507288 78.4222237 14.5777893 78.4222237 13.2048498 78.0702539 12.0234833 77.3343171 11.0975474 76.5983802 10.1396826 75.6384626 9.66075022 74.3905697 9.66075022 73.1426767 9.66075022 72.1827591 10.1396826 71.4468222 11.0975474zM90.4851887 16.9085935L90.4851887 22.6238532 86.5175292 22.6238532 86.5175292 6.53172536 90.4851887 6.53172536 90.4851887 9.14988902C91.6370899 7.32994599 93.3649417 6.27629476 95.2527797 6.27629476 95.8607275 6.27629476 96.5006726 6.37208124 97.2046122 6.59558301L96.4686754 10.2673979C95.9887165 9.98003847 95.412766 9.82039435 94.8048181 9.82039435 92.277035 9.82039435 90.4851887 12.0234833 90.4851887 16.9085935zM100.020371 22.6238532L100.020371.0182450429 103.98803.0182450429 103.98803 12.8536327 109.23558 6.53172536 114.13116 6.53172536 107.667714 13.9392128 114.547124 22.6238532 109.683542 22.6238532 103.98803 15.0247928 103.98803 22.6238532 100.020371 22.6238532zM5.05861359 52.652153L.898970487 52.652153.898970487 30.3019754 5.57056966 30.3019754 10.8501167 44.254872 16.1296637 30.3019754 20.8012629 30.3019754 20.8012629 52.652153 16.6416198 52.652153 16.6416198 38.8589006 12.3539876 50.6087082 9.34624571 50.6087082 5.05861359 38.8589006 5.05861359 52.652153zM40.3195882 44.254872L40.3195882 45.8832421 29.2165408 45.8832421C29.3125326 47.8309004 30.7204118 49.5231281 33.0242141 49.5231281 34.6560741 49.5231281 35.9679616 48.6929787 36.9278792 47.0326798L40.1276047 48.2140463C38.7517227 51.3430712 36.3199314 52.9075836 32.8002334 52.9075836 27.2647083 52.9075836 25.0568977 48.4375481 25.0568977 44.6060891 25.0568977 40.7746301 27.2647083 36.3045946 32.8002334 36.3045946 35.3600137 36.3045946 37.4398353 37.3582458 38.5917364 38.9866159 39.7436376 40.5511283 40.3195882 42.434929 40.3195882 44.254872zM32.8002334 39.68905C30.9123953 39.68905 29.6005079 41.0619895 29.3125326 42.7542172L36.2559369 42.7542172C35.8079753 40.7107724 34.6560741 39.68905 32.8002334 39.68905zM50.2067399 36.3045946C51.7746054 36.3045946 53.3744681 37.1028152 54.1104049 38.0287511L54.1104049 30.0465448 58.0780645 30.0465448 58.0780645 52.652153 54.1104049 52.652153 54.1104049 50.9918541C53.5984489 51.91779 52.0305834 52.9075836 50.2067399 52.9075836 45.4711462 52.9075836 42.8473713 49.6827723 42.8473713 44.6060891 42.8473713 39.5294059 45.4711462 36.3045946 50.2067399 36.3045946zM48.0629238 40.9981318C47.3589842 41.8602101 47.0070144 43.0735055 47.0070144 44.6060891 47.0070144 46.1386727 47.3589842 47.351968 48.0629238 48.2140463 48.7668634 49.0761246 49.6627865 49.5231281 50.7506932 49.5231281 51.8385999 49.5231281 52.734523 49.1080534 53.4064653 48.2459751 54.1104049 47.3838969 54.4623747 46.1706015 54.4623747 44.6060891 54.4623747 43.0415766 54.1104049 41.8602101 53.4064653 40.9981318 52.734523 40.1360536 51.8385999 39.68905 50.7506932 39.68905 49.6627865 39.68905 48.7668634 40.1360536 48.0629238 40.9981318zM62.9736445 33.7502885C61.9817296 32.760495 61.9817296 31.1001961 62.9736445 30.1104025 63.9655594 29.1206089 65.6294166 29.1206089 66.6213315 30.1104025 67.6132464 31.1001961 67.6132464 32.760495 66.6213315 33.7502885 65.6294166 34.7400821 63.9655594 34.7400821 62.9736445 33.7502885zM62.8136582 52.652153L62.8136582 36.5600252 66.7813178 36.5600252 66.7813178 52.652153 62.8136582 52.652153zM81.9800137 46.8730357L85.531709 48.3098328C84.2838161 51.375 81.8520247 52.9075836 78.2043377 52.9075836 75.6765546 52.9075836 73.7567193 52.109363 72.3808373 50.5448505 71.0049554 48.9803381 70.333013 47.000751 70.333013 44.6060891 70.333013 42.2114272 71.0049554 40.23184 72.3808373 38.6673276 73.7567193 37.1028152 75.6765546 36.3045946 78.2043377 36.3045946 81.8520247 36.3045946 84.2838161 37.8371782 85.531709 40.9023454L81.9800137 42.3391425C81.1160879 40.5830571 79.8361977 39.68905 78.2043377 39.68905 75.7725463 39.68905 74.4926561 41.6686372 74.4926561 44.6060891 74.4926561 47.543541 75.7725463 49.5231281 78.2043377 49.5231281 79.8361977 49.5231281 81.1160879 48.629121 81.9800137 46.8730357zM91.7711736 41.5409219L88.4114619 40.7746301C88.923418 38.0926088 91.3232121 36.3045946 94.5549348 36.3045946 99.0665477 36.3045946 101.338353 38.5396123 101.338353 43.0415766L101.338353 52.652153 98.0746328 52.652153 97.6586685 50.6087082C96.4107756 52.1412918 94.7469183 52.9075836 92.699094 52.9075836 89.8513384 52.9075836 87.8035141 51.1195694 87.8035141 48.0224734 87.8035141 44.8295909 90.5872752 42.7542172 94.6829238 42.7542172L97.3706932 42.7542172 97.3706932 42.0517831C97.3706932 40.4872706 96.4427728 39.68905 94.5549348 39.68905 93.1150583 39.68905 92.187138 40.2956977 91.7711736 41.5409219zM91.9631572 47.9586157C91.9631572 48.820694 92.571105 49.5231281 93.6270144 49.5231281 94.6189293 49.5231281 95.4828552 49.2038399 96.218792 48.5971922 96.9867261 47.9905445 97.3706932 47.1923239 97.3706932 46.2025303L97.3706932 45.8832421 94.7149211 45.8832421C92.8910776 45.8832421 91.9631572 46.5856762 91.9631572 47.9586157zM105.529993 52.652153L105.529993 30.0465448 109.497653 30.0465448 109.497653 52.652153 105.529993 52.652153z" transform="translate(82.065 3.484)"/>
    </g>
    <rect width="349" height="200" x="699" y="400" fill="#FFE0A6"/>
    <g fill="#2B2B2C" transform="translate(775 470)">
      <path fill-rule="nonzero" d="M41.25,41.25 L41.25,60 L18.75,60 L18.75,41.25 L0,41.25 L0,18.75 L18.75,18.75 L18.75,1.36424205e-12 L41.25,1.36424205e-12 L41.25,18.75 L60,18.75 L60,41.25 L41.25,41.25 Z M22.6209677,41.3709677 L22.6209677,56.1290323 L37.3790323,56.1290323 L37.3790323,41.3709677 L22.6209677,41.3709677 Z M3.87096774,22.6209677 L3.87096774,37.3790323 L18.6290323,37.3790323 L18.6290323,22.6209677 L3.87096774,22.6209677 Z M22.6209677,3.87096774 L22.6209677,37.3790323 L56.1290323,37.3790323 L56.1290323,22.6209677 L37.3790323,22.6209677 L37.3790323,3.87096774 L22.6209677,3.87096774 Z"/>
      <path d="M20.1872203 6.78715596L16.4435415 7.74502072C15.4516266 5.15878588 13.6277831 3.84970405 10.9080165 3.84970405 9.08417296 3.84970405 7.54830474 4.48828056 6.33240906 5.79736239 5.14851064 7.10644421 4.5405628 8.99024489 4.5405628 11.4487644 4.5405628 13.907284 5.14851064 15.7910846 6.33240906 17.1001665 7.54830474 18.4092483 9.08417296 19.0478248 10.9080165 19.0478248 13.6277831 19.0478248 15.4516266 17.738743 16.4435415 15.1525081L20.1872203 16.1103729C19.1313109 20.4207643 15.7715992 22.8792838 10.9080165 22.8792838 7.93227179 22.8792838 5.43648593 21.8575614 3.38866163 19.8460454 1.34083734 17.8345294.316925189 15.0247928.316925189 11.4487644.316925189 7.87273602 1.34083734 5.06299941 3.38866163 3.05148343 5.43648593 1.03996745 7.93227179.0182450429 10.9080165.0182450429 15.7715992.0182450429 19.1313109 2.47676458 20.1872203 6.78715596zM24.7628277 20.5484796C23.290954 18.9839672 22.5550172 16.9724512 22.5550172 14.5777893 22.5550172 12.1831274 23.290954 10.2035402 24.7628277 8.63902782 26.2347014 7.07451539 28.2185312 6.27629476 30.7463143 6.27629476 33.2740975 6.27629476 35.2579272 7.07451539 36.729801 8.63902782 38.2016747 10.2035402 38.9376115 12.1831274 38.9376115 14.5777893 38.9376115 16.9724512 38.2016747 18.9839672 36.729801 20.5484796 35.2579272 22.112992 33.2740975 22.8792838 30.7463143 22.8792838 28.2185312 22.8792838 26.2347014 22.112992 24.7628277 20.5484796zM27.8025669 11.0975474C27.0666301 12.0234833 26.7146603 13.2048498 26.7146603 14.5777893 26.7146603 15.9507288 27.0666301 17.1320953 27.8025669 18.08996 28.5385038 19.015896 29.4984214 19.4948284 30.7463143 19.4948284 31.9942073 19.4948284 32.9541249 19.015896 33.6900618 18.08996 34.4259986 17.1320953 34.7779684 15.9507288 34.7779684 14.5777893 34.7779684 13.2048498 34.4259986 12.0234833 33.6900618 11.0975474 32.9541249 10.1396826 31.9942073 9.66075022 30.7463143 9.66075022 29.4984214 9.66075022 28.5385038 10.1396826 27.8025669 11.0975474zM57.1440494 17.5790988L60.0238023 6.53172536 64.0234592 6.53172536 58.8719012 22.6238532 55.3522032 22.6238532 52.568442 12.2150562 49.7846809 22.6238532 46.2649828 22.6238532 41.1134248 6.53172536 45.1130817 6.53172536 47.9928346 17.5790988 50.7126012 6.53172536 54.4242828 6.53172536 57.1440494 17.5790988zM68.407083 20.5484796C66.9352093 18.9839672 66.1992725 16.9724512 66.1992725 14.5777893 66.1992725 12.1831274 66.9352093 10.2035402 68.407083 8.63902782 69.8789568 7.07451539 71.8627865 6.27629476 74.3905697 6.27629476 76.9183528 6.27629476 78.9021826 7.07451539 80.3740563 8.63902782 81.84593 10.2035402 82.5818668 12.1831274 82.5818668 14.5777893 82.5818668 16.9724512 81.84593 18.9839672 80.3740563 20.5484796 78.9021826 22.112992 76.9183528 22.8792838 74.3905697 22.8792838 71.8627865 22.8792838 69.8789568 22.112992 68.407083 20.5484796zM71.4468222 11.0975474C70.7108854 12.0234833 70.3589156 13.2048498 70.3589156 14.5777893 70.3589156 15.9507288 70.7108854 17.1320953 71.4468222 18.08996 72.1827591 19.015896 73.1426767 19.4948284 74.3905697 19.4948284 75.6384626 19.4948284 76.5983802 19.015896 77.3343171 18.08996 78.0702539 17.1320953 78.4222237 15.9507288 78.4222237 14.5777893 78.4222237 13.2048498 78.0702539 12.0234833 77.3343171 11.0975474 76.5983802 10.1396826 75.6384626 9.66075022 74.3905697 9.66075022 73.1426767 9.66075022 72.1827591 10.1396826 71.4468222 11.0975474zM90.4851887 16.9085935L90.4851887 22.6238532 86.5175292 22.6238532 86.5175292 6.53172536 90.4851887 6.53172536 90.4851887 9.14988902C91.6370899 7.32994599 93.3649417 6.27629476 95.2527797 6.27629476 95.8607275 6.27629476 96.5006726 6.37208124 97.2046122 6.59558301L96.4686754 10.2673979C95.9887165 9.98003847 95.412766 9.82039435 94.8048181 9.82039435 92.277035 9.82039435 90.4851887 12.0234833 90.4851887 16.9085935zM100.020371 22.6238532L100.020371.0182450429 103.98803.0182450429 103.98803 12.8536327 109.23558 6.53172536 114.13116 6.53172536 107.667714 13.9392128 114.547124 22.6238532 109.683542 22.6238532 103.98803 15.0247928 103.98803 22.6238532 100.020371 22.6238532zM5.05861359 52.652153L.898970487 52.652153.898970487 30.3019754 5.57056966 30.3019754 10.8501167 44.254872 16.1296637 30.3019754 20.8012629 30.3019754 20.8012629 52.652153 16.6416198 52.652153 16.6416198 38.8589006 12.3539876 50.6087082 9.34624571 50.6087082 5.05861359 38.8589006 5.05861359 52.652153zM40.3195882 44.254872L40.3195882 45.8832421 29.2165408 45.8832421C29.3125326 47.8309004 30.7204118 49.5231281 33.0242141 49.5231281 34.6560741 49.5231281 35.9679616 48.6929787 36.9278792 47.0326798L40.1276047 48.2140463C38.7517227 51.3430712 36.3199314 52.9075836 32.8002334 52.9075836 27.2647083 52.9075836 25.0568977 48.4375481 25.0568977 44.6060891 25.0568977 40.7746301 27.2647083 36.3045946 32.8002334 36.3045946 35.3600137 36.3045946 37.4398353 37.3582458 38.5917364 38.9866159 39.7436376 40.5511283 40.3195882 42.434929 40.3195882 44.254872zM32.8002334 39.68905C30.9123953 39.68905 29.6005079 41.0619895 29.3125326 42.7542172L36.2559369 42.7542172C35.8079753 40.7107724 34.6560741 39.68905 32.8002334 39.68905zM50.2067399 36.3045946C51.7746054 36.3045946 53.3744681 37.1028152 54.1104049 38.0287511L54.1104049 30.0465448 58.0780645 30.0465448 58.0780645 52.652153 54.1104049 52.652153 54.1104049 50.9918541C53.5984489 51.91779 52.0305834 52.9075836 50.2067399 52.9075836 45.4711462 52.9075836 42.8473713 49.6827723 42.8473713 44.6060891 42.8473713 39.5294059 45.4711462 36.3045946 50.2067399 36.3045946zM48.0629238 40.9981318C47.3589842 41.8602101 47.0070144 43.0735055 47.0070144 44.6060891 47.0070144 46.1386727 47.3589842 47.351968 48.0629238 48.2140463 48.7668634 49.0761246 49.6627865 49.5231281 50.7506932 49.5231281 51.8385999 49.5231281 52.734523 49.1080534 53.4064653 48.2459751 54.1104049 47.3838969 54.4623747 46.1706015 54.4623747 44.6060891 54.4623747 43.0415766 54.1104049 41.8602101 53.4064653 40.9981318 52.734523 40.1360536 51.8385999 39.68905 50.7506932 39.68905 49.6627865 39.68905 48.7668634 40.1360536 48.0629238 40.9981318zM62.9736445 33.7502885C61.9817296 32.760495 61.9817296 31.1001961 62.9736445 30.1104025 63.9655594 29.1206089 65.6294166 29.1206089 66.6213315 30.1104025 67.6132464 31.1001961 67.6132464 32.760495 66.6213315 33.7502885 65.6294166 34.7400821 63.9655594 34.7400821 62.9736445 33.7502885zM62.8136582 52.652153L62.8136582 36.5600252 66.7813178 36.5600252 66.7813178 52.652153 62.8136582 52.652153zM81.9800137 46.8730357L85.531709 48.3098328C84.2838161 51.375 81.8520247 52.9075836 78.2043377 52.9075836 75.6765546 52.9075836 73.7567193 52.109363 72.3808373 50.5448505 71.0049554 48.9803381 70.333013 47.000751 70.333013 44.6060891 70.333013 42.2114272 71.0049554 40.23184 72.3808373 38.6673276 73.7567193 37.1028152 75.6765546 36.3045946 78.2043377 36.3045946 81.8520247 36.3045946 84.2838161 37.8371782 85.531709 40.9023454L81.9800137 42.3391425C81.1160879 40.5830571 79.8361977 39.68905 78.2043377 39.68905 75.7725463 39.68905 74.4926561 41.6686372 74.4926561 44.6060891 74.4926561 47.543541 75.7725463 49.5231281 78.2043377 49.5231281 79.8361977 49.5231281 81.1160879 48.629121 81.9800137 46.8730357zM91.7711736 41.5409219L88.4114619 40.7746301C88.923418 38.0926088 91.3232121 36.3045946 94.5549348 36.3045946 99.0665477 36.3045946 101.338353 38.5396123 101.338353 43.0415766L101.338353 52.652153 98.0746328 52.652153 97.6586685 50.6087082C96.4107756 52.1412918 94.7469183 52.9075836 92.699094 52.9075836 89.8513384 52.9075836 87.8035141 51.1195694 87.8035141 48.0224734 87.8035141 44.8295909 90.5872752 42.7542172 94.6829238 42.7542172L97.3706932 42.7542172 97.3706932 42.0517831C97.3706932 40.4872706 96.4427728 39.68905 94.5549348 39.68905 93.1150583 39.68905 92.187138 40.2956977 91.7711736 41.5409219zM91.9631572 47.9586157C91.9631572 48.820694 92.571105 49.5231281 93.6270144 49.5231281 94.6189293 49.5231281 95.4828552 49.2038399 96.218792 48.5971922 96.9867261 47.9905445 97.3706932 47.1923239 97.3706932 46.2025303L97.3706932 45.8832421 94.7149211 45.8832421C92.8910776 45.8832421 91.9631572 46.5856762 91.9631572 47.9586157zM105.529993 52.652153L105.529993 30.0465448 109.497653 30.0465448 109.497653 52.652153 105.529993 52.652153z" transform="translate(82.065 3.484)"/>
    </g>
  </g>
</svg>
