<svg xmlns="http://www.w3.org/2000/svg" width="1048" height="800" viewBox="0 0 1048 800">
  <g fill="none" fill-rule="evenodd">
    <rect width="1048" height="800" fill="#41426A"/>
    <g fill-rule="nonzero" transform="translate(-262 -65)">
      <path fill="#329374" d="M4.94379532 18.7961123C5.93666178 18.7961123 6.74153907 17.9856504 6.74153907 16.985895 6.74153907 15.9861395 5.93666178 15.1756776 4.94379532 15.1756776 3.95092886 15.1756776 3.14605157 15.9861395 3.14605157 16.985895 3.14605157 17.9856504 3.95092886 18.7961123 4.94379532 18.7961123zM4.94379532 21.9639927C2.21341256 21.9639927 0 19.7352224 0 16.985895 0 14.2365675 2.21341256 12.0077973 4.94379532 12.0077973 7.67417808 12.0077973 9.88759064 14.2365675 9.88759064 16.985895 9.88759064 19.7352224 7.67417808 21.9639927 4.94379532 21.9639927zM4.94379532 6.78831504C5.93666178 6.78831504 6.74153907 5.97785313 6.74153907 4.9780977 6.74153907 3.97834227 5.93666178 3.16788035 4.94379532 3.16788035 3.95092886 3.16788035 3.14605157 3.97834227 3.14605157 4.9780977 3.14605157 5.97785313 3.95092886 6.78831504 4.94379532 6.78831504zM4.94379532 9.9561954C2.21341256 9.9561954 0 7.72742514 0 4.9780977 0 2.22877026 2.21341256 0 4.94379532 0 7.67417808 0 9.88759064 2.22877026 9.88759064 4.9780977 9.88759064 7.72742514 7.67417808 9.9561954 4.94379532 9.9561954z" transform="translate(468 796)"/>
      <path fill="#E4E7ED" d="M14.5,25.9443902 C20.8205622,25.9443902 25.9443902,20.8205622 25.9443902,14.5 C25.9443902,8.1794378 20.8205622,3.05560976 14.5,3.05560976 C8.1794378,3.05560976 3.05560976,8.1794378 3.05560976,14.5 C3.05560976,20.8205622 8.1794378,25.9443902 14.5,25.9443902 Z M14.5,29 C6.49187113,29 0,22.5081289 0,14.5 C0,6.49187113 6.49187113,0 14.5,0 C22.5081289,0 29,6.49187113 29,14.5 C29,22.5081289 22.5081289,29 14.5,29 Z" transform="rotate(180 512 76.5)"/>
      <g transform="matrix(-1 0 0 1 346 235)">
        <path stroke="#FFE0A6" stroke-width="3.234" d="M25.1298998,36.1732208 C24.3329022,23.504887 14.2366776,13.3720459 1.617,12.5692972 C1.617,20.1622925 1.617,21.3729235 1.617,36.1732208 C12.88869,36.1732208 13.8890118,36.1732208 25.1298998,36.1732208 Z"/>
        <path fill="#FFE0A6" d="M21.7277913,2.90694006 L21.7277913,15.9881703 L34.764466,15.9881703 L34.764466,2.90694006 L21.7277913,2.90694006 Z M18.8307524,0 L37.6615049,0 L37.6615049,18.8951104 L18.8307524,18.8951104 L18.8307524,0 Z" transform="matrix(1 0 0 -1 0 18.895)"/>
      </g>
      <path fill="#FCC6C2" d="M5.07723548 6.94716543C6.09690084 6.94716543 6.92350293 6.11773826 6.92350293 5.09458799 6.92350293 4.07143771 6.09690084 3.24201054 5.07723548 3.24201054 4.05757013 3.24201054 3.23096804 4.07143771 3.23096804 5.09458799 3.23096804 6.11773826 4.05757013 6.94716543 5.07723548 6.94716543zM5.07723548 10.189176C2.27315576 10.189176 0 7.90825124 0 5.09458799 0 2.28092473 2.27315576 0 5.07723548 0 7.88131521 0 10.154471 2.28092473 10.154471 5.09458799 10.154471 7.90825124 7.88131521 10.189176 5.07723548 10.189176zM5.07723548 21.6937092C6.09690084 21.6937092 6.92350293 20.864282 6.92350293 19.8411318 6.92350293 18.8179815 6.09690084 17.9885543 5.07723548 17.9885543 4.05757013 17.9885543 3.23096804 18.8179815 3.23096804 19.8411318 3.23096804 20.864282 4.05757013 21.6937092 5.07723548 21.6937092zM5.07723548 24.9357197C2.27315576 24.9357197 0 22.654795 0 19.8411318 0 17.0274685 2.27315576 14.7465438 5.07723548 14.7465438 7.88131521 14.7465438 10.154471 17.0274685 10.154471 19.8411318 10.154471 22.654795 7.88131521 24.9357197 5.07723548 24.9357197zM19.8237793 21.6937092C20.8434446 21.6937092 21.6700467 20.864282 21.6700467 19.8411318 21.6700467 18.8179815 20.8434446 17.9885543 19.8237793 17.9885543 18.8041139 17.9885543 17.9775118 18.8179815 17.9775118 19.8411318 17.9775118 20.864282 18.8041139 21.6937092 19.8237793 21.6937092zM19.8237793 24.9357197C17.0196995 24.9357197 14.7465438 22.654795 14.7465438 19.8411318 14.7465438 17.0274685 17.0196995 14.7465438 19.8237793 14.7465438 22.627859 14.7465438 24.9010147 17.0274685 24.9010147 19.8411318 24.9010147 22.654795 22.627859 24.9357197 19.8237793 24.9357197z" transform="matrix(1 0 0 -1 1243 119)"/>
    </g>
    <path fill="#FFF" fill-rule="nonzero" d="M16.632 26.252L13.716 26.252 13.716 56.006C13.716 59.192 15.066 59.84 17.928 59.84L18.9 59.84C25.704 59.84 30.456 53.846 30.456 43.424 30.456 33.758 26.19 26.252 16.632 26.252zM19.062 62L1.458 62 1.458 60.11C5.238 59.678 5.778 59.354 5.778 56.384L5.778 29.708C5.778 26.738 5.238 26.414 1.458 25.982L1.458 24.092 18.036 24.092C32.346 24.092 38.826 32.3 38.826 42.29 38.826 54.764 30.564 62 19.062 62zM52.434 32.84L52.434 57.842C52.434 59.732 53.298 60.056 55.836 60.218L55.836 62 41.58 62 41.58 60.218C44.118 60.056 44.982 59.732 44.982 57.842L44.982 38.726 41.742 36.836 41.742 35.81 51.246 32.84 52.434 32.84zM48.6 29.6C46.008 29.6 44.226 27.602 44.226 25.334 44.226 23.012 46.008 21.068 48.6 21.068 51.246 21.068 53.028 23.012 53.028 25.334 53.028 27.602 51.246 29.6 48.6 29.6zM69.93 51.794C68.04 51.794 66.15 51.524 64.476 50.93 63.45 51.902 62.64 53.036 62.64 54.17 62.64 55.304 63.342 56.006 64.53 56.006L75.654 56.006C81.918 56.006 85.158 58.652 85.158 63.404 85.158 70.208 78.354 73.988 69.39 73.988 61.506 73.988 56.592 71.612 56.592 67.238 56.592 64.484 59.076 62.972 61.668 62.162 59.562 61.352 58.32 59.462 58.32 57.248 58.32 54.062 60.858 52.01 63.342 50.444 60.48 49.04 58.374 46.556 58.374 42.722 58.374 36.512 63.396 32.84 70.146 32.84 72.144 32.84 73.602 33.218 74.952 33.596L84.078 33.38 84.078 36.512 81.864 36.512 78.084 36.35C79.974 37.592 81.486 39.86 81.486 42.56 81.486 48.284 76.68 51.794 69.93 51.794zM75.546 62.864L62.532 62.864C61.83 63.674 61.506 64.754 61.506 66.05 61.506 69.668 64.692 71.936 69.768 71.936 75.06 71.936 79.812 70.154 79.812 66.104 79.812 63.728 78.192 62.864 75.546 62.864zM70.254 50.012C73.224 50.012 74.412 47.042 74.412 42.722 74.412 38.402 72.954 34.676 69.822 34.676 66.798 34.676 65.556 37.646 65.556 41.858 65.556 46.286 67.068 50.012 70.254 50.012zM97.038 32.84L97.038 57.842C97.038 59.732 97.902 60.056 100.44 60.218L100.44 62 86.184 62 86.184 60.218C88.722 60.056 89.586 59.732 89.586 57.842L89.586 38.726 86.346 36.836 86.346 35.81 95.85 32.84 97.038 32.84zM93.204 29.6C90.612 29.6 88.83 27.602 88.83 25.334 88.83 23.012 90.612 21.068 93.204 21.068 95.85 21.068 97.632 23.012 97.632 25.334 97.632 27.602 95.85 29.6 93.204 29.6zM112.212 26.36L112.212 33.38 119.232 33.38 119.232 35.864 112.212 35.864 112.212 53.738C112.212 57.032 113.454 58.436 115.992 58.436 117.504 58.436 118.692 57.95 120.042 56.924L120.69 57.896C118.962 60.596 116.262 62.54 112.374 62.54 107.946 62.54 104.706 60.218 104.706 54.17L104.706 35.864 101.358 35.864 101.358 34.622C105.084 32.948 108.27 29.924 110.592 26.36L112.212 26.36zM133.434 58.22C135 58.22 136.08 57.626 137.592 56.492L137.592 46.394 132.948 48.284C130.68 49.148 129.276 50.39 129.276 53.414 129.276 56.222 130.572 58.22 133.434 58.22zM145.044 41.696L145.044 56.006C145.044 57.842 145.422 59.03 146.826 59.03 147.636 59.03 148.392 58.76 148.986 58.49L149.31 59.678C147.744 61.514 145.692 62.54 143.154 62.54 140.238 62.54 138.294 60.758 137.754 57.788 136.026 60.056 133.218 62.432 129.33 62.432 124.956 62.432 122.04 59.786 122.04 55.466 122.04 50.822 125.388 48.932 129.438 47.42L137.592 44.45 137.592 39.86C137.592 36.782 136.566 34.568 133.758 34.568 131.166 34.568 130.14 36.512 130.14 39.104 130.14 40.184 130.302 41.264 130.572 42.452L126.09 43.046C124.632 42.56 123.714 41.426 123.714 39.644 123.714 35.162 128.358 32.84 134.352 32.84 141.264 32.84 145.044 35.378 145.044 41.696zM160.974 19.718L160.974 57.842C160.974 59.732 161.838 60.056 164.322 60.218L164.322 62 150.12 62 150.12 60.218C152.604 60.056 153.468 59.732 153.468 57.842L153.468 25.118 150.228 23.444 150.228 22.31 159.786 19.718 160.974 19.718zM189.54 62.54C184.41 62.54 179.982 60.974 177.552 58.976L177.066 49.742 179.334 49.742C180.63 56.168 184.086 60.38 189.54 60.38 193.914 60.38 196.668 58.004 196.668 54.278 196.668 50.282 194.346 48.608 187.866 46.232 181.494 44.018 177.39 41.102 177.39 34.73 177.39 28.142 182.412 23.552 189.972 23.552 194.508 23.552 198.558 24.794 201.204 26.738L201.204 34.784 199.206 34.784C198.18 29.06 195.102 25.712 189.972 25.712 186.192 25.712 183.816 28.034 183.816 31.436 183.816 35.216 185.868 36.782 191.646 38.888 198.882 41.48 203.256 44.288 203.256 51.092 203.256 58.652 197.046 62.54 189.54 62.54zM216.108 26.36L216.108 33.38 223.128 33.38 223.128 35.864 216.108 35.864 216.108 53.738C216.108 57.032 217.35 58.436 219.888 58.436 221.4 58.436 222.588 57.95 223.938 56.924L224.586 57.896C222.858 60.596 220.158 62.54 216.27 62.54 211.842 62.54 208.602 60.218 208.602 54.17L208.602 35.864 205.254 35.864 205.254 34.622C208.98 32.948 212.166 29.924 214.488 26.36L216.108 26.36zM242.136 54.494L248.184 38.51C248.454 37.862 248.562 37.43 248.562 36.998 248.562 35.756 247.698 35.486 244.89 35.162L244.89 33.38 254.178 33.38 254.178 35.162C252.288 35.702 251.91 36.08 251.424 37.214L239.544 67.13C237.762 71.504 235.926 73.88 232.416 73.88 230.58 73.88 228.798 72.962 228.258 71.396L228.258 68.642C229.392 68.912 230.364 69.128 231.93 69.128 234.846 69.128 236.628 68.318 237.762 65.348L238.68 63.026 227.07 37.214C226.584 36.08 226.26 35.702 224.316 35.162L224.316 33.38 239.004 33.38 239.004 35.162C236.25 35.486 235.332 35.756 235.332 36.998 235.332 37.43 235.44 37.862 235.656 38.51L242.136 54.494zM265.41 19.718L265.41 57.842C265.41 59.732 266.274 60.056 268.758 60.218L268.758 62 254.556 62 254.556 60.218C257.04 60.056 257.904 59.732 257.904 57.842L257.904 25.118 254.664 23.444 254.664 22.31 264.222 19.718 265.41 19.718zM284.148 32.84C291.384 32.84 295.164 37.646 295.164 44.126L295.164 45.368 277.56 45.368C277.344 52.928 281.232 57.41 286.524 57.41 290.196 57.41 292.626 55.844 294.57 53.036L295.434 53.522C294.03 58.868 290.088 62.54 283.878 62.54 276.048 62.54 270.81 56.762 270.81 48.446 270.81 39.212 276.75 32.84 284.148 32.84zM283.608 34.838C280.044 34.838 278.1 38.402 277.668 43.37L288.468 43.37C288.468 38.294 287.118 34.838 283.608 34.838zM333.234 58.814L333.234 49.85C333.234 46.88 332.748 46.502 328.914 46.07L328.914 44.234 345.006 44.234 345.006 46.07C341.226 46.502 340.686 46.88 340.686 49.85L340.686 58.814C337.176 61.082 332.478 62.54 326.916 62.54 314.928 62.54 308.232 54.44 308.232 43.964 308.232 31.436 316.656 23.552 327.618 23.552 332.424 23.552 336.528 24.632 339.66 26.684L339.714 35.432 337.662 35.432C336.366 29.168 333.234 25.766 327.834 25.766 320.004 25.766 316.602 33.272 316.602 42.506 316.602 51.902 320.166 60.272 327.888 60.272 329.994 60.272 331.776 59.948 333.234 58.814zM373.788 39.212L373.788 56.276C373.788 58.112 373.896 58.706 375.948 58.868L377.298 58.976 377.298 60.596 367.47 62.54 366.12 62.54 366.282 57.356C364.014 59.894 361.152 62.54 356.886 62.54 352.134 62.54 349.056 59.84 349.056 53.792L349.056 39.752C349.056 37.97 348.678 37.106 346.572 36.728L345.708 36.566 345.708 34.946 355.644 32.894 356.832 32.894 356.562 39.32 356.562 52.82C356.562 56.114 357.804 58.058 360.774 58.058 362.934 58.058 364.554 57.14 366.282 56.006L366.282 39.752C366.282 37.97 365.904 37.106 363.798 36.728L362.988 36.566 362.988 34.946 372.816 32.894 374.004 32.894 373.788 39.212zM389.934 32.84L389.934 57.842C389.934 59.732 390.798 60.056 393.336 60.218L393.336 62 379.08 62 379.08 60.218C381.618 60.056 382.482 59.732 382.482 57.842L382.482 38.726 379.242 36.836 379.242 35.81 388.746 32.84 389.934 32.84zM386.1 29.6C383.508 29.6 381.726 27.602 381.726 25.334 381.726 23.012 383.508 21.068 386.1 21.068 388.746 21.068 390.528 23.012 390.528 25.334 390.528 27.602 388.746 29.6 386.1 29.6zM409.914 35.27C405.378 35.27 402.732 39.698 402.732 46.448 402.732 53.036 405.432 57.95 410.346 57.95 412.182 57.95 413.694 57.356 414.936 56.222L414.936 41.966C414.936 37.754 413.154 35.27 409.914 35.27zM414.936 25.118L411.696 23.444 411.696 22.31 421.254 19.718 422.442 19.718 422.442 56.276C422.442 58.112 422.55 58.706 424.602 58.868L425.952 58.976 425.952 60.596 416.124 62.54 414.72 62.54 414.936 57.518C412.776 60.596 410.022 62.54 406.242 62.54 399.708 62.54 395.334 57.248 395.334 49.04 395.334 38.834 401.382 32.948 409.104 32.948 411.588 32.948 413.64 33.65 414.936 34.838L414.936 25.118zM441.18 32.84C448.416 32.84 452.196 37.646 452.196 44.126L452.196 45.368 434.592 45.368C434.376 52.928 438.264 57.41 443.556 57.41 447.228 57.41 449.658 55.844 451.602 53.036L452.466 53.522C451.062 58.868 447.12 62.54 440.91 62.54 433.08 62.54 427.842 56.762 427.842 48.446 427.842 39.212 433.782 32.84 441.18 32.84zM440.64 34.838C437.076 34.838 435.132 38.402 434.7 43.37L445.5 43.37C445.5 38.294 444.15 34.838 440.64 34.838zM20.07 122.12L16.56 123.02C15.63 120.59 13.92 119.36 11.37 119.36 9.66 119.36 8.22 119.96 7.08 121.19 5.97 122.42 5.4 124.19 5.4 126.5 5.4 128.81 5.97 130.58 7.08 131.81 8.22 133.04 9.66 133.64 11.37 133.64 13.92 133.64 15.63 132.41 16.56 129.98L20.07 130.88C19.08 134.93 15.93 137.24 11.37 137.24 8.58 137.24 6.24 136.28 4.32 134.39 2.4 132.5 1.44 129.86 1.44 126.5 1.44 123.14 2.4 120.5 4.32 118.61 6.24 116.72 8.58 115.76 11.37 115.76 15.93 115.76 19.08 118.07 20.07 122.12zM24.78 135.05C23.4 133.58 22.71 131.69 22.71 129.44 22.71 127.19 23.4 125.33 24.78 123.86 26.16 122.39 28.02 121.64 30.39 121.64 32.76 121.64 34.62 122.39 36 123.86 37.38 125.33 38.07 127.19 38.07 129.44 38.07 131.69 37.38 133.58 36 135.05 34.62 136.52 32.76 137.24 30.39 137.24 28.02 137.24 26.16 136.52 24.78 135.05zM27.63 126.17C26.94 127.04 26.61 128.15 26.61 129.44 26.61 130.73 26.94 131.84 27.63 132.74 28.32 133.61 29.22 134.06 30.39 134.06 31.56 134.06 32.46 133.61 33.15 132.74 33.84 131.84 34.17 130.73 34.17 129.44 34.17 128.15 33.84 127.04 33.15 126.17 32.46 125.27 31.56 124.82 30.39 124.82 29.22 124.82 28.32 125.27 27.63 126.17zM54.96 132.26L57.66 121.88 61.41 121.88 56.58 137 53.28 137 50.67 127.22 48.06 137 44.76 137 39.93 121.88 43.68 121.88 46.38 132.26 48.93 121.88 52.41 121.88 54.96 132.26zM65.25 135.05C63.87 133.58 63.18 131.69 63.18 129.44 63.18 127.19 63.87 125.33 65.25 123.86 66.63 122.39 68.49 121.64 70.86 121.64 73.23 121.64 75.09 122.39 76.47 123.86 77.85 125.33 78.54 127.19 78.54 129.44 78.54 131.69 77.85 133.58 76.47 135.05 75.09 136.52 73.23 137.24 70.86 137.24 68.49 137.24 66.63 136.52 65.25 135.05zM68.1 126.17C67.41 127.04 67.08 128.15 67.08 129.44 67.08 130.73 67.41 131.84 68.1 132.74 68.79 133.61 69.69 134.06 70.86 134.06 72.03 134.06 72.93 133.61 73.62 132.74 74.31 131.84 74.64 130.73 74.64 129.44 74.64 128.15 74.31 127.04 73.62 126.17 72.93 125.27 72.03 124.82 70.86 124.82 69.69 124.82 68.79 125.27 68.1 126.17zM85.53 131.63L85.53 137 81.81 137 81.81 121.88 85.53 121.88 85.53 124.34C86.61 122.63 88.23 121.64 90 121.64 90.57 121.64 91.17 121.73 91.83 121.94L91.14 125.39C90.69 125.12 90.15 124.97 89.58 124.97 87.21 124.97 85.53 127.04 85.53 131.63zM94.62 137L94.62 115.76 98.34 115.76 98.34 127.82 103.26 121.88 107.85 121.88 101.79 128.84 108.24 137 103.68 137 98.34 129.86 98.34 137 94.62 137zM122.37 137L118.47 137 118.47 116 122.85 116 127.8 129.11 132.75 116 137.13 116 137.13 137 133.23 137 133.23 124.04 129.21 135.08 126.39 135.08 122.37 124.04 122.37 137zM155.1 129.11L155.1 130.64 144.69 130.64C144.78 132.47 146.1 134.06 148.26 134.06 149.79 134.06 151.02 133.28 151.92 131.72L154.92 132.83C153.63 135.77 151.35 137.24 148.05 137.24 142.86 137.24 140.79 133.04 140.79 129.44 140.79 125.84 142.86 121.64 148.05 121.64 150.45 121.64 152.4 122.63 153.48 124.16 154.56 125.63 155.1 127.4 155.1 129.11zM148.05 124.82C146.28 124.82 145.05 126.11 144.78 127.7L151.29 127.7C150.87 125.78 149.79 124.82 148.05 124.82zM165 121.64C166.47 121.64 167.97 122.39 168.66 123.26L168.66 115.76 172.38 115.76 172.38 137 168.66 137 168.66 135.44C168.18 136.31 166.71 137.24 165 137.24 160.56 137.24 158.1 134.21 158.1 129.44 158.1 124.67 160.56 121.64 165 121.64zM162.99 126.05C162.33 126.86 162 128 162 129.44 162 130.88 162.33 132.02 162.99 132.83 163.65 133.64 164.49 134.06 165.51 134.06 166.53 134.06 167.37 133.67 168 132.86 168.66 132.05 168.99 130.91 168.99 129.44 168.99 127.97 168.66 126.86 168 126.05 167.37 125.24 166.53 124.82 165.51 124.82 164.49 124.82 163.65 125.24 162.99 126.05zM176.46 119.24C175.53 118.31 175.53 116.75 176.46 115.82 177.39 114.89 178.95 114.89 179.88 115.82 180.81 116.75 180.81 118.31 179.88 119.24 178.95 120.17 177.39 120.17 176.46 119.24zM176.31 137L176.31 121.88 180.03 121.88 180.03 137 176.31 137zM194.55 131.57L197.88 132.92C196.71 135.8 194.43 137.24 191.01 137.24 188.64 137.24 186.84 136.49 185.55 135.02 184.26 133.55 183.63 131.69 183.63 129.44 183.63 127.19 184.26 125.33 185.55 123.86 186.84 122.39 188.64 121.64 191.01 121.64 194.43 121.64 196.71 123.08 197.88 125.96L194.55 127.31C193.74 125.66 192.54 124.82 191.01 124.82 188.73 124.82 187.53 126.68 187.53 129.44 187.53 132.2 188.73 134.06 191.01 134.06 192.54 134.06 193.74 133.22 194.55 131.57zM203.88 126.56L200.73 125.84C201.21 123.32 203.46 121.64 206.49 121.64 210.72 121.64 212.85 123.74 212.85 127.97L212.85 137 209.79 137 209.4 135.08C208.23 136.52 206.67 137.24 204.75 137.24 202.08 137.24 200.16 135.56 200.16 132.65 200.16 129.65 202.77 127.7 206.61 127.7L209.13 127.7 209.13 127.04C209.13 125.57 208.26 124.82 206.49 124.82 205.14 124.82 204.27 125.39 203.88 126.56zM204.06 132.59C204.06 133.4 204.63 134.06 205.62 134.06 206.55 134.06 207.36 133.76 208.05 133.19 208.77 132.62 209.13 131.87 209.13 130.94L209.13 130.64 206.64 130.64C204.93 130.64 204.06 131.3 204.06 132.59zM216.54 137L216.54 115.76 220.26 115.76 220.26 137 216.54 137zM226.35 118.7L223.23 118.7 223.23 116 232.38 116 232.38 118.7 229.26 118.7 229.26 128 226.35 128 226.35 118.7zM237.09 128L234.18 128 234.18 116 237.09 116 240 122.99 242.91 116 245.82 116 245.82 128 242.91 128 242.91 122.21 240.96 126.89 239.04 126.89 237.09 122.21 237.09 128z" transform="translate(60 313)"/>
    <path fill="#FFF" fill-rule="nonzero" d="M170.5,170.5 L170.5,248 L77.5,248 L77.5,170.5 L0,170.5 L0,77.5 L77.5,77.5 L77.5,1.36424205e-12 L170.5,1.36424205e-12 L170.5,77.5 L248,77.5 L248,170.5 L170.5,170.5 Z M93.5,171 L93.5,232 L154.5,232 L154.5,171 L93.5,171 Z M16,93.5 L16,154.5 L77,154.5 L77,93.5 L16,93.5 Z M93.5,16 L93.5,154.5 L232,154.5 L232,93.5 L154.5,93.5 L154.5,16 L93.5,16 Z" transform="translate(700 276)"/>
  </g>
</svg>
